<?xml version="1.0" encoding="utf-8"?>
<!-- Generator: Adobe Illustrator 16.0.0, SVG Export Plug-In . SVG Version: 6.00 Build 0)  -->
<!DOCTYPE svg PUBLIC "-//W3C//DTD SVG 1.1//EN" "http://www.w3.org/Graphics/SVG/1.1/DTD/svg11.dtd">
<svg version="1.1" id="Layer_1" xmlns="http://www.w3.org/2000/svg" xmlns:xlink="http://www.w3.org/1999/xlink" x="0px" y="0px"
	 width="432px" height="66px" viewBox="0 0 432 66" enable-background="new 0 0 432 66" xml:space="preserve">
<g>
	<defs>
		<rect id="SVGID_1_" y="0.221" width="432" height="65.719"/>
	</defs>
	<clipPath id="SVGID_2_">
		<use xlink:href="#SVGID_1_"  overflow="visible"/>
	</clipPath>
	<g clip-path="url(#SVGID_2_)">
		<defs>
			<rect id="SVGID_3_" width="432" height="66"/>
		</defs>
		<clipPath id="SVGID_4_">
			<use xlink:href="#SVGID_3_"  overflow="visible"/>
		</clipPath>
		<polyline clip-path="url(#SVGID_4_)" points="30.698,65.999 19.165,65.999 0,46.834 0,22.987 19.107,3.879 30.756,3.879 
			49.863,22.987 29.907,22.987 29.907,22.985 24.932,18.009 14.109,28.831 14.109,40.991 24.932,51.812 29.91,46.834 49.863,46.834 
			30.698,65.999 		"/>
		<polyline clip-path="url(#SVGID_4_)" points="107.008,46.834 87.842,65.999 76.31,65.999 57.144,46.834 57.144,3.857 
			71.254,3.857 71.254,40.991 82.076,51.812 92.898,40.991 92.898,3.857 107.008,3.857 107.008,46.834 		"/>
		<path clip-path="url(#SVGID_4_)" d="M164.152,46.834l-19.165,19.165h-30.698V51.89h-0.002V3.879h30.758l19.107,19.108v9.229
			l-9.09,3.726l9.09,3.678V46.834 M128.397,31.645l17.336-7.124l-6.532-6.532h-10.804V31.645z M144.249,46.784L144.249,46.784
			l-7.856-3.194l-7.996,3.276v5.022l10.747,0.001L144.249,46.784z"/>
		<polyline clip-path="url(#SVGID_4_)" points="221.299,66 190.554,66 190.554,65.985 171.433,46.865 171.433,23.028 190.606,3.857 
			190.606,3.853 221.299,3.853 221.299,17.962 196.452,17.962 185.541,28.872 185.541,36.367 221.299,22.677 221.299,37.784 
			193.1,48.58 196.412,51.892 221.299,51.892 221.299,66 		"/>
		<path clip-path="url(#SVGID_4_)" d="M278.441,46.834l-19.165,19.165h-30.698V51.89h-0.002V3.879h30.759l19.106,19.108v9.229
			l-9.091,3.726l9.091,3.678V46.834 M242.686,31.645l17.337-7.124l-6.532-6.532h-10.805V31.645z M258.538,46.784L258.538,46.784
			l-7.856-3.194l-7.996,3.276v5.022l10.747,0.001L258.538,46.784z"/>
		<path clip-path="url(#SVGID_4_)" d="M335.586,46.834L316.42,65.999h-11.532l-19.166-19.165V22.987L304.83,3.879h11.648
			l19.107,19.108V46.834 M321.476,28.831l-10.821-10.822l-10.822,10.822v12.16l10.822,10.82l10.821-10.82V28.831z"/>
		<polyline clip-path="url(#SVGID_4_)" points="392.733,19.001 374.839,25.951 374.839,65.999 360.722,65.999 360.722,31.433 
			342.867,38.369 342.867,23.226 392.733,3.857 392.733,19.001 		"/>
	</g>
</g>
<g>
	<defs>
		<rect id="SVGID_5_" width="432" height="66"/>
	</defs>
	<clipPath id="SVGID_6_">
		<use xlink:href="#SVGID_5_"  overflow="visible"/>
	</clipPath>
	<path clip-path="url(#SVGID_6_)" d="M432,11.953V27.26l-11.636,11.686H409.79l-11.783-11.782V11.857l11.687-11.636h10.525
		L432,11.953 M426.544,24.991V14.223l-8.594-8.547h-5.988l-8.449,8.451v10.767l8.546,8.546h6.036L426.544,24.991z M417.515,23.88
		l-3.572-1.207v6.567h-4.298V9.443h7.726l4.491,4.49v4.732l-3.09,1.111l2.752,0.965v8.547h-4.009V23.88z M416.79,15.189
		l-0.241-0.242h-2.606v1.883l0.048,0.049L416.79,15.189z"/>
</g>
</svg>
