<?xml version="1.0" encoding="utf-8"?>
<!-- Generator: Adobe Illustrator 16.0.0, SVG Export Plug-In . SVG Version: 6.00 Build 0)  -->
<!DOCTYPE svg PUBLIC "-//W3C//DTD SVG 1.1//EN" "http://www.w3.org/Graphics/SVG/1.1/DTD/svg11.dtd">
<svg version="1.1" id="Layer_1" xmlns="http://www.w3.org/2000/svg" xmlns:xlink="http://www.w3.org/1999/xlink" x="0px" y="0px"
	 width="418.541px" height="62.541px" viewBox="96.729 364.629 418.541 62.541"
	 enable-background="new 96.729 364.629 418.541 62.541" xml:space="preserve">
<g>
	<path fill="#FFFFFF" stroke="#000000" stroke-width="1.741" d="M127.6,426.3c-4.2,0-8.2-0.8-12-2.399c-3.6-1.601-6.8-3.601-9.6-6.4
		c-2.6-2.8-4.8-5.8-6.2-9.6c-1.6-3.601-2.2-7.601-2.2-11.801v-0.2c0-4.2,0.8-8,2.2-11.8c1.6-3.6,3.6-6.8,6.2-9.6s5.8-5,9.6-6.6
		c3.8-1.6,7.8-2.4,12.4-2.4c2.8,0,5.2,0.2,7.6,0.6c2.2,0.4,4.2,1,6,1.8c1.8,0.8,3.6,1.8,5,2.8c1.6,1.2,3,2.4,4.4,3.6l-8.2,9.4
		c-2.2-2-4.6-3.6-7-4.8c-2.4-1.2-5-1.8-8-1.8c-2.4,0-4.8,0.4-6.8,1.4s-3.8,2.2-5.4,4c-1.6,1.6-2.6,3.6-3.6,5.8
		c-0.8,2.2-1.2,4.6-1.2,7v0.2c0,2.6,0.4,4.8,1.2,7.2c0.8,2.2,2,4.2,3.4,5.8s3.2,3,5.4,4c2,1,4.4,1.4,6.8,1.4
		c3.4,0,6.2-0.601,8.4-1.801c2.4-1.199,4.6-3,6.8-5l8.2,8.2c-1.6,1.601-3,3-4.6,4.4c-1.6,1.2-3.4,2.399-5.4,3.399s-4,1.601-6.4,2
		C133,426.1,130.4,426.3,127.6,426.3z"/>
	<path fill="#FFFFFF" stroke="#000000" stroke-width="1.741" d="M186.2,426.1c-7.8,0-14-2.199-18.6-6.6s-6.8-10.8-6.8-19.4V366.7
		h12.8v33c0,4.8,1.2,8.399,3.4,10.8s5.4,3.6,9.2,3.6c4,0,7-1.199,9.2-3.6c2.2-2.4,3.4-5.8,3.4-10.6v-33.2h12.8v33
		c0,4.399-0.6,8.2-1.8,11.6c-1.2,3.4-3,6-5.2,8.2c-2.2,2.2-5,3.8-8,5C193.8,425.7,190.2,426.1,186.2,426.1z"/>
	<path fill="#FFFFFF" stroke="#000000" stroke-width="1.741" d="M225,366.7h27c6.8,0,11.8,1.8,15.2,5.2c2.6,2.6,4,6,4,10v0.2
		c0,3.2-0.8,6-2.2,7.8c-1.4,2-3.2,3.6-5.4,4.8c1.6,0.6,3.2,1.399,4.6,2.2c1.4,0.8,2.6,1.8,3.4,3c1,1.199,1.6,2.399,2.2,4
		c0.4,1.6,0.8,3.199,0.8,5.199v0.2c0,2.601-0.6,5-1.6,7s-2.6,3.601-4.4,5c-2,1.4-4.2,2.4-7,3c-2.6,0.601-5.6,1-9,1h-27.8v-58.6H225z
		 M249.4,390.3c2.8,0,5-0.4,6.8-1.4c1.6-1,2.6-2.6,2.6-4.8v-0.2c0-2-0.8-3.4-2.2-4.4s-3.6-1.6-6.2-1.6h-12.8v12.4H249.4z
		 M252.8,413.9c2.8,0,5-0.601,6.6-1.601s2.4-2.6,2.4-4.8l0,0c0-2-0.8-3.4-2.2-4.6c-1.6-1.2-4-1.801-7.2-1.801h-14.8V413.9H252.8z"/>
	<polygon fill="#FFFFFF" stroke="#000000" stroke-width="1.741" points="285.4,366.7 329.4,366.7 329.4,378.1 298,378.1 298,390.1 
		325.6,390.1 325.6,401.5 298,401.5 298,413.7 329.8,413.7 329.8,425.3 285.4,425.3 	"/>
	<path fill="#FFFFFF" stroke="#000000" stroke-width="1.741" d="M341.4,366.7H368.6c6.801,0,11.801,1.8,15.2,5.2c2.601,2.6,4,6,4,10
		v0.2c0,3.2-0.8,6-2.2,7.8c-1.399,2-3.199,3.6-5.399,4.8c1.6,0.6,3.2,1.399,4.6,2.2c1.4,0.8,2.601,1.8,3.4,3
		c1,1.199,1.6,2.399,2.2,4c0.399,1.6,0.8,3.199,0.8,5.199v0.2c0,2.601-0.601,5-1.601,7s-2.6,3.601-4.399,5c-2,1.4-4.2,2.4-7,3
		c-2.601,0.601-5.601,1-9,1h-27.8V366.7L341.4,366.7z M365.8,390.3c2.8,0,5-0.4,6.8-1.4c1.601-1,2.601-2.6,2.601-4.8v-0.2
		c0-2-0.8-3.4-2.2-4.4s-3.6-1.6-6.2-1.6H354v12.4H365.8z M369.2,413.9c2.8,0,5-0.601,6.6-1.601c1.601-1,2.4-2.6,2.4-4.8l0,0
		c0-2-0.8-3.4-2.2-4.6c-1.6-1.2-4-1.801-7.2-1.801H354V413.9H369.2z"/>
	<path fill="#FFFFFF" stroke="#000000" stroke-width="1.741" d="M430,426.3c-4.6,0-8.6-0.8-12.4-2.399c-3.8-1.601-7-3.801-9.8-6.4
		s-5-5.8-6.399-9.6c-1.601-3.601-2.2-7.601-2.2-11.801v-0.2c0-4.2,0.8-8,2.399-11.8c1.601-3.6,3.801-6.8,6.4-9.6
		c2.8-2.8,6-5,9.8-6.6s8-2.4,12.4-2.4c4.6,0,8.6,0.8,12.399,2.4c3.801,1.6,7,3.8,9.801,6.4c2.8,2.8,5,5.8,6.399,9.6
		c1.601,3.6,2.2,7.6,2.2,11.8v0.2c0,4.2-0.8,8-2.4,11.8c-1.6,3.6-3.8,6.8-6.399,9.6c-2.8,2.8-6,5-9.8,6.601
		C438.8,425.5,434.6,426.3,430,426.3z M430.2,414.3c2.6,0,5-0.399,7.2-1.399c2.199-1,4-2.2,5.6-4c1.6-1.601,2.8-3.601,3.6-5.801
		c0.801-2.199,1.2-4.6,1.2-7v-0.2c0-2.6-0.399-4.8-1.2-7.2c-0.8-2.2-2-4.2-3.6-5.8s-3.4-3-5.6-4c-2.2-1-4.601-1.4-7.2-1.4
		c-2.601,0-5,0.4-7.2,1.4s-4,2.2-5.6,4c-1.601,1.6-2.801,3.6-3.601,5.8c-0.8,2.2-1.2,4.6-1.2,7v0.2c0,2.6,0.4,4.8,1.2,7.2
		c0.8,2.2,2,4.2,3.601,5.801c1.6,1.6,3.399,3,5.6,4S427.6,414.3,430.2,414.3z"/>
	<polygon fill="#FFFFFF" stroke="#000000" stroke-width="1.741" points="483.8,378.7 466,378.7 466,366.7 514.4,366.7 514.4,378.7 
		496.6,378.7 496.6,425.3 483.8,425.3 	"/>
</g>
</svg>
