<?xml version="1.0" standalone="no"?>
<!DOCTYPE svg PUBLIC "-//W3C//DTD SVG 1.1//EN" "http://www.w3.org/Graphics/SVG/1.1/DTD/svg11.dtd" >
<svg xmlns="http://www.w3.org/2000/svg" xmlns:xlink="http://www.w3.org/1999/xlink" version="1.1">
<metadata></metadata>
<defs>
<font id="goffblack" horiz-adv-x="1413" >
<font-face units-per-em="2048" ascent="1638" descent="-410" />
<missing-glyph horiz-adv-x="500" />
<glyph horiz-adv-x="0" />
<glyph horiz-adv-x="682" />
<glyph unicode=" " />
<glyph unicode="!" d="M430 479v1057h348v-1057h-348zM453 0v291h290v-291h-290z" />
<glyph unicode="&#x22;" d="M195 1051v485h348v-485h-348zM666 1049v485h348v-485h-348z" />
<glyph unicode="#" d="M118 207l51 348h100l19 117h-101l54 348h106l12 82h355l-15 -82h136l12 82h354l-14 -82h108l-53 -348h-113l-18 -117h115l-54 -348h-118l-15 -84h-352l12 84h-133l-14 -84h-354l14 84h-94zM624 555h133l20 117h-135z" />
<glyph unicode="$" d="M0 473h493l123 -123l202 202l-818 155v355l439 440v161h349v-161l439 -439h-494l-119 120l-199 -199l818 -155v-355l-445 -445v-152h-349v157z" />
<glyph unicode="%" d="M87 987v256l180 180h260l181 -180v-256l-183 -182h-254l-182 182h-2zM278 449l686 686l163 -164l-686 -686zM290 1114l108 -108l109 108l-109 111zM706 182v256l180 180h260l180 -180v-256l-182 -182h-254l-182 182h-2zM908 309l109 -108l108 108l-108 111z" />
<glyph unicode="&#x26;" d="M0 474l295 295l-295 294l472 473h268v-473l-124 123l-123 -123l295 -294l-295 -295l123 -123l124 123h493v-494l-247 247l-227 -227h-285z" />
<glyph unicode="'" d="M430 1051v485h348v-485h-348z" />
<glyph unicode="(" d="M280 319v967l358 359h494l-504 -502v-678l506 -506h-494z" />
<glyph unicode=")" d="M280 1640h493l361 -360v-967l-359 -358h-493l503 502v678z" />
<glyph unicode="*" d="M369 1346l163 163l58 -57v84h233v-84l58 57l163 -163l-174 -175l172 -172l-163 -163l-56 55v-92h-233v92l-55 -55l-164 163l172 172z" />
<glyph unicode="+" d="M170 375v350h369v350h348v-350h356v-350h-356v-373h-348v373h-369z" />
<glyph unicode="," d="M294 -129l328 330v90h292v-293l-127 -125v-2h-493z" />
<glyph unicode="-" d="M295 430v350h823v-350h-823z" />
<glyph unicode="." d="M459 0v293h291v-293h-291z" />
<glyph unicode="/" d="M260 -10l526 1626h367l-526 -1626h-367z" />
<glyph unicode="0" d="M0 474v589l472 473h288l473 -473v-589l-474 -474h-285zM349 618l267 -267l268 267v301l-268 267l-267 -267v-301zM493 777l123 123l124 -123l-124 -123z" />
<glyph unicode="1" d="M0 0v349h444v754l-309 -119h-135v349h70l525 203h198v-1187h440v-349h-1233z" />
<glyph unicode="2" d="M0 0v343l737 723l-121 120l-123 -123h-493l472 473h288l473 -473l-729 -714h729v-349h-1233z" />
<glyph unicode="3" d="M0 474h493l123 -123l123 123h1l-295 295l295 294l-124 123l-123 -123h-493l472 473h288l473 -473l-295 -294l295 -295l-474 -474h-285z" />
<glyph unicode="4" d="M0 474v349l713 713h408v-713h112v-349h-112v-474h-349v474h-772zM493 823h279v278z" />
<glyph unicode="5" d="M0 474h493l123 -123l124 123l-121 120h-498v942h985v-349h-636v-244h294l469 -469l-474 -474h-285z" />
<glyph unicode="6" d="M0 474v763l300 299h806v-349h-662l-95 -95v-269l120 120h1h294l469 -469l-474 -474h-285zM493 474l123 -123l124 123l-124 123z" />
<glyph unicode="7" d="M0 1188v348h1233v-347l-777 -1189h-417l776 1188h-815z" />
<glyph unicode="8" d="M0 474l297 296l-297 297l469 469h1h294l469 -469l-297 -297l297 -296l-474 -474h-285zM493 474l123 -123l124 123l-124 123zM493 1067l123 -123l124 123l-124 123z" />
<glyph unicode="9" d="M0 1063l474 473h285l474 -473v-763l-300 -300h-806v349h662l95 95v270l-120 -121h-1h-294zM493 1063l123 -124l124 124l-124 123z" />
<glyph unicode=":" d="M457 0v293h291v-293h-291zM461 938v293h291v-293h-291z" />
<glyph unicode=";" d="M294 -129l328 330v90h292v-293l-127 -125v-2h-493zM620 938v293h290v-293h-290z" />
<glyph unicode="&#x3c;" d="M167 498v118l1079 500v-385l-377 -174l377 -174v-385z" />
<glyph unicode="=" d="M170 326v350h1073v-350h-1073zM170 831v349h1073v-349h-1073z" />
<glyph unicode="&#x3e;" d="M167 2v385l377 174l-377 174v385l1079 -499v-119z" />
<glyph unicode="?" d="M0 1063l472 473h288l473 -473l-442 -442v-147h-349v292l298 297l-124 123l-123 -123h-493zM471 0v292h291v-292h-291z" />
<glyph unicode="@" d="M2 408v722l406 406h704l121 -121v-825v-273v-6h-232v43l-43 -43h-389l-276 275v391l276 274h389l43 -41v95h-497l-268 -271v-530l270 -273h510v-231h-606zM526 684l140 -141h196l139 141v197l-139 139h-196l-140 -139v-197z" />
<glyph unicode="A" d="M0 0v1063l474 473h286l473 -473v-1063h-349v571l-535 -217v-354h-349zM349 731l515 208l-247 247l-268 -268v-187z" />
<glyph unicode="B" d="M0 0v349v1187h348h1h411l473 -473v-228l-225 -92l225 -91v-178l-474 -474h-759zM349 349h266l126 126l-194 79l-198 -81v-124zM349 849l429 176l-162 162h-267v-338z" />
<glyph unicode="C" d="M0 474v589l472 473h288l473 -473h-493l-124 123l-267 -267v-301l267 -267l124 123h493l-474 -474h-285z" />
<glyph unicode="D" d="M0 0v349v259v341v587h348h1h411l473 -473v-589l-474 -474h-759zM349 349h266l269 269v301l-268 268h-267v-838z" />
<glyph unicode="E" d="M0 473v589l474 474h759v-348h-614l-270 -270v-185l884 338v-373l-697 -267l82 -82h615v-349h-760z" />
<glyph unicode="F" d="M0 0v1062l474 474h759v-348h-614l-270 -270v-185l884 338v-373l-884 -339v-359h-349z" />
<glyph unicode="G" d="M0 474v589l472 473h288l473 -473h-493l-124 123l-267 -267v-301l267 -267l126 125h-126v345h617v-821h-345v128l-129 -128h-285z" />
<glyph unicode="H" d="M0 0v1536h349v-686l535 211v475h349v-1536h-349v686l-535 -211v-475h-349z" />
<glyph unicode="I" d="M0 0v349h444v839h-444v348h1233v-348h-440v-839h440v-349h-1233z" />
<glyph unicode="J" d="M0 474h493l123 -123l268 267v918h349v-1062l-474 -474h-285z" />
<glyph unicode="K" d="M0 0v1536h349v-686l884 349v-375l-212 -84l212 -84v-656h-349v419l-336 134l-199 -78v-475h-349z" />
<glyph unicode="L" d="M0 0v1536h349v-1187h265l126 125h493l-474 -474h-759z" />
<glyph unicode="M" d="M0 0v1536h281l334 -334l335 334h283v-1536h-349v977l-269 -269l-266 267v-975h-349z" />
<glyph unicode="N" d="M0 0v1536h349v-302l535 -471v773h349v-1536h-349v298l-535 471v-769h-349z" />
<glyph unicode="O" d="M0 474v589l472 473h288l473 -473v-589l-474 -474h-285zM349 618l267 -267l268 267v301l-268 267l-267 -267v-301z" />
<glyph unicode="P" d="M0 0v349v1187h761l472 -473v-229l-884 -358v-127v-349h-349zM349 852l428 174l-161 161h-267v-335z" />
<glyph unicode="Q" d="M0 474v589l472 473h288l473 -473v-589l-125 -125h125v-349h-759zM349 618l267 -267l268 267v301l-268 267l-267 -267v-301z" />
<glyph unicode="R" d="M0 0v349v1187h761l472 -473v-229l-224 -91l224 -91v-173v-479h-349v417l-340 138l-195 -79v-476h-349zM349 852l428 174l-161 161h-267v-335z" />
<glyph unicode="S" d="M0 473h493l123 -123l202 202l-818 155v355l474 474h280l473 -473h-494l-119 120l-199 -199l818 -155v-355l-474 -474h-286z" />
<glyph unicode="T" d="M0 683v374l1233 479v-374l-442 -172v-990h-349v855z" />
<glyph unicode="U" d="M0 474v1062h349v-918l267 -267l268 267v918h349v-1062l-474 -474h-285z" />
<glyph unicode="V" d="M0 1536h363l253 -877l254 877h363l-444 -1536h-346z" />
<glyph unicode="W" d="M0 1536h350l52 -696l76 223h276l77 -223l51 696h351l-115 -1536h-369l-133 389l-133 -389h-369z" />
<glyph unicode="X" d="M0 0v451l360 317l-360 317v451h349v-307l267 -235l268 235v307h349v-451l-360 -317l360 -317v-451h-349v307l-268 236l-267 -236v-307h-349z" />
<glyph unicode="Y" d="M0 866v670h349v-431l268 -105l267 104v432h349v-670l-442 -172v-694h-348v694z" />
<glyph unicode="Z" d="M0 0v305l739 883h-180l-104 -125h-455l396 473h837v-302l-741 -885h181l105 125h455l-397 -474h-836z" />
<glyph unicode="[" d="M305 -346v2300h348h455v-350h-455v-19v-1583h455v-348h-455h-348z" />
<glyph unicode="\" d="M260 1614h367l526 -1626h-367z" />
<glyph unicode="]" d="M305 0h455v18v1584h-455v348h455h348v-2300h-348h-455v350z" />
<glyph unicode="^" d="M147 455l500 1079h119l500 -1079h-385l-174 376l-175 -376h-385z" />
<glyph unicode="_" d="M59 2h1295v-348h-1295v348z" />
<glyph unicode="`" d="M334 1604h491v2l254 -254h-493z" />
<glyph unicode="a" d="M2 479v269l483 483h267l135 -133v133h348v-1233h-348v133l-135 -133h-267zM360 614l258 -258l256 258l-256 256z" />
<glyph unicode="b" d="M23 2v1602h348v-174v-328l135 133h266l483 -483v-269l-483 -481h-266l-135 133v-133h-348zM381 618l258 -258l256 258l-256 256z" />
<glyph unicode="c" d="M23 481v269l483 483h266l483 -483h-493l-123 122l-256 -256l256 -258l123 125h493l-483 -483h-266z" />
<glyph unicode="d" d="M16 481v269l484 483h266l135 -133v327v175h348v-1602h-348v133l-135 -133h-266zM377 616l256 -258l256 258l-256 256z" />
<glyph unicode="e" d="M16 479v269l484 483h266l483 -483v-158l-602 -244h602v-348h-749zM373 612l370 150l-110 108z" />
<glyph unicode="f" d="M20 213v375l420 162v254v114l484 484h266h63v-349h-186l-279 -278v-92l465 178v-373l-465 -178v-510h-348v375z" />
<glyph unicode="g" d="M20 -100h885v231l-135 -133h-266l-484 481v269l484 483h266l135 -133v133h348v-1331v-349h-483h-266h-484v349zM381 614l256 -258l256 258l-256 256z" />
<glyph unicode="h" d="M27 2v1602h348v-504l135 135h266l484 -483v-750h-349v606l-268 266l-268 -266v-606h-348z" />
<glyph unicode="i" d="M45 0v348h440v451l-440 -166v373l602 227h187v-885h444v-348h-1233zM516 1309v293h291v-293h-291z" />
<glyph unicode="j" d="M-33 -98h606l279 278v619l-440 -166v373l602 227h186v-928v-268l-483 -483h-266h-484v348zM883 1309v293h291v-293h-291z" />
<glyph unicode="k" d="M0 0v1602h348v-869l885 344v-375l-207 -79l207 -82v-541h-348v303l-342 131l-195 -76v-358h-348z" />
<glyph unicode="l" d="M16 999v373l609 230h182v-1254h442v-348h-790v348v813v6z" />
<glyph unicode="m" d="M-10 -2v1233h348v-94l96 94h348v-90l92 90h349v-1233h-349v741l-92 -92v-649h-348v741l-96 -96v-645h-348z" />
<glyph unicode="n" d="M4 0v1233h348v-133l135 133h267l483 -483v-750h-348v606l-268 266l-269 -266v-473v-133h-348z" />
<glyph unicode="o" d="M10 479v269l484 483h266l483 -483v-267l-483 -483h-266zM371 614l256 -258l256 258l-256 256z" />
<glyph unicode="p" d="M2 -449v1680h348v-135l135 135h267l483 -483v-267l-483 -483h-267l-135 133v-397v-183h-348zM360 614l258 -258l256 258l-256 256z" />
<glyph unicode="q" d="M-6 481v267l483 483h266l136 -135v135h348v-1680h-348v183v397l-136 -133h-266zM352 614l258 -258l256 258l-256 256l-256 -256h-2z" />
<glyph unicode="r" d="M0 -2v348h440v451l-440 -166v373l602 227h186v-66l66 66h350v-348h-205l-211 -211v-326h445v-348h-1233z" />
<glyph unicode="s" d="M-2 -2v348h606l45 47l-643 363l475 475h109h641v-348h-604l-49 -49l645 -363l-475 -473h-750z" />
<glyph unicode="t" d="M-6 389v373l420 162v436h348v-303l465 178v-373v-2l-465 -176v-682h-348v547z" />
<glyph unicode="u" d="M2 481v750h348v-604l268 -269l269 267v473v133h348v-1233h-348v133l-135 -133h-267z" />
<glyph unicode="v" d="M20 1231h379l238 -553l235 553h379l-526 -1233h-178z" />
<glyph unicode="w" d="M2 1233h350l43 -397l72 227h303l72 -229l43 399h350l-133 -1233h-365l-119 381l-120 -381h-365z" />
<glyph unicode="x" d="M0 -2v532l188 82l-188 84v535h348v-307l270 -121l267 117v311h348v-539l-182 -80l182 -80v-534h-348v307l-267 117l-270 -119v-305h-348z" />
<glyph unicode="y" d="M25 1231h378l238 -553l236 553h378l-716 -1680h-379l291 682z" />
<glyph unicode="z" d="M0 0v342l676 543h-158l-24 -25h-494l373 373h860v-348l-668 -537h158l16 19h494l-367 -367h-866z" />
<glyph unicode="{" d="M254 440v647l102 103v762h349h454v-350h-454v-19v-539l-281 -280l281 -281v-483h454v-348h-454h-349v686z" />
<glyph unicode="|" d="M532 -131v1763h349v-1763h-349z" />
<glyph unicode="}" d="M254 0h455v18v539l280 281l-280 280v484h-455v348h455h348v-686l102 -103v-647l-102 -102v-762h-348h-455v350z" />
<glyph unicode="~" d="M68 549l245 346l637 -150l111 156l285 -203l-246 -346l-637 150l-111 -156z" />
<glyph unicode="&#xa0;" />
<glyph unicode="&#xa1;" d="M532 0v1057h349v-1057h-349zM567 1245v291h291v-291h-291z" />
<glyph unicode="&#xa2;" d="M18 481v269l443 442v164h348v-162l442 -444h-493l-123 122l-256 -256l256 -258l123 125h493l-442 -442v-164h-348v162z" />
<glyph unicode="&#xa3;" d="M16 2v348h170l250 250l-256 -94v258l256 94v334l346 346h459v-348h-315l-142 -143v-60l402 148v-258l-402 -148v-274l-104 -105h561v-348h-1225z" />
<glyph unicode="&#xa4;" d="M90 532l119 119l-119 117v268l119 119l-119 119l246 246l119 -119l118 119h267l118 -119l119 119l246 -246l-119 -119l119 -119v-266l-119 -119l119 -119l-248 -245l-117 119l-118 -119h-267l-118 116l-119 -116zM451 903l256 -258l256 258l-256 256z" />
<glyph unicode="&#xa5;" d="M0 866v670h349v-431l268 -105l267 104v432h349v-670l-442 -172v-694h-348v694zM76 150v204h1073v-204h-1073zM76 436v205h1075l-2 -205h-1073z" />
<glyph unicode="&#xa6;" d="M531 -147v845h351v-845h-351zM531 844v788h351v-788h-351z" />
<glyph unicode="&#xa7;" d="M-4 0v348h500l-484 483l248 246l96 97l-116 116l243 246h4h730v-348h-381l6 -6l133 -133l248 -248l-344 -342l213 -213l-248 -246h-848zM506 831l127 -126l96 96l-127 127z" />
<glyph unicode="&#xa8;" d="M297 1350v292h291v-292h-291zM825 1350v292h291v-292h-291z" />
<glyph unicode="&#xa9;" d="M-100 481v602v47l495 494h449l499 -498v-649l-493 -495h-451zM133 578l363 -363h258l358 358v457l-364 363h-256l-359 -359v-456zM252 612v389l274 277h197l276 -277h-329l-43 43h-4l-138 -139v-196l138 -138h4l43 41h329l-276 -274h-197z" />
<glyph unicode="&#xaa;" d="M237 934v2v305l294 295h351q1 0 8 -7.5t22.5 -23t32.5 -30.5v61h232v-897h-232v63l-63 -63h-351zM468 1030l160 -158h157l160 158v115l-160 160h-157l-160 -160v-115z" />
<glyph unicode="&#xab;" d="M1 258v463v141l552 256v-385l-377 -174l377 -174v-385zM683 258v463v141l552 256v-385l-377 -174l377 -174v-385z" />
<glyph unicode="&#xac;" d="M225 711v348h963v-348v-484h-348v484h-615z" />
<glyph unicode="&#xad;" d="M295 430v350h823v-350h-823z" />
<glyph unicode="&#xae;" d="M-85 477v602v47l496 494h446l500 -498v-649l-494 -496h-448zM148 573l363 -362h256l358 358v457l-364 363h-254l-359 -359v-457zM409 389v840h233h94l191 -191v-200l-131 -47l116 -41v-363h-170v229l-151 52v-279h-182zM591 915l2 -2l119 72l-11 10h-110v-80z" />
<glyph unicode="&#xb0;" d="M401 1128l2 205h-2l203 203h207l201 -201v-209l-201 -200h-207l-201 202h-2zM629 1231l80 -80l77 80l-79 80z" />
<glyph unicode="&#xb1;" d="M140 0v350h1133v-350h-1133zM140 541v350h369v350h348v-350h356v-350h-356v-140h-348v140h-369z" />
<glyph unicode="&#xb2;" d="M414 807v163l350 343l-57 57l-59 -58h-234l224 224h137l224 -224l-346 -340h346v-165h-585z" />
<glyph unicode="&#xb3;" d="M413 1031h235l59 -59l58 59l-140 140l140 140l-58 59l-59 -59h-235l225 225h137l225 -225l-140 -140l140 -140l-226 -226h-135z" />
<glyph unicode="&#xb4;" d="M334 1352l252 254v-2h493l-254 -252h-491z" />
<glyph unicode="&#xb5;" d="M0 -446v929v750h348v-604l268 -269l269 267v473v133h348v-1233h-348v133l-135 -133h-267l-135 135v-581h-348z" />
<glyph unicode="&#xb6;" d="M1 836v409l358 359h873v-349h-146v-1415h-348v1415h-94v-1415h-348v699v2z" />
<glyph unicode="&#xb7;" d="M561 582v292h291v-292h-291z" />
<glyph unicode="&#xb8;" d="M412 -154h239v224h350v-574h-118h-471v350z" />
<glyph unicode="&#xb9;" d="M530 807v165h90v359l-86 -34v178l157 61h94v-564h98v-165h-353z" />
<glyph unicode="&#xba;" d="M236 932v2v305l294 297h353l295 -297v-307l-295 -295h-353zM469 1030l158 -160h159l158 160v113l-158 160h-159l-158 -160v-113z" />
<glyph unicode="&#xbb;" d="M5 4v385l377 174l-377 174v385l552 -258v-463v-141zM687 4v385l377 174l-377 174v385l552 -258v-463v-141z" />
<glyph unicode="&#xbc;" d="M-9 272l1132 1133l124 -124l-1133 -1132zM47 807v165h90v359l-86 -34v178l158 61h94v-564h98v-165h-354zM606 225v166l339 338h194v-338h53v-166h-53v-225h-166v225h-367zM841 391h132v132z" />
<glyph unicode="&#xbd;" d="M-9 272l1132 1133l124 -124l-1133 -1132zM47 807v165h90v359l-86 -34v178l158 61h94v-564h98v-165h-354zM603 0v163l350 343l-57 57l-59 -58h-234l224 224h137l224 -224l-346 -340h347v-165h-586z" />
<glyph unicode="&#xbe;" d="M-9 272l1132 1133l124 -124l-1133 -1132zM-2 1031h235l58 -59l59 59l-140 140l140 140l-59 59l-58 -59h-235l225 225h137l225 -225l-140 -140l140 -140l-226 -226h-135zM606 225v166l339 338h194v-338h53v-166h-53v-225h-166v225h-367zM841 391h132v132z" />
<glyph unicode="&#xbf;" d="M90 473l442 442v147h349v-292l-298 -297l124 -123l123 123h493l-472 -473h-288zM561 1244v292h291v-292h-291z" />
<glyph unicode="&#xc0;" d="M0 0v1063l474 473h286l473 -473v-1063h-349v571l-535 -217v-354h-349zM201 1907h491v2l254 -254h-493zM349 731l515 208l-247 247l-268 -268v-187z" />
<glyph unicode="&#xc1;" d="M0 0v1063l474 473h286l473 -473v-1063h-349v571l-535 -217v-354h-349zM315 1655l252 254v-2h494l-254 -252h-492zM349 731l515 208l-247 247l-268 -268v-187z" />
<glyph unicode="&#xc2;" d="M0 0v1063l474 473h286l473 -473v-1063h-349v571l-535 -217v-354h-349zM41 1653l309 311h539l309 -311h-491l-86 86h-3l-86 -86h-491zM349 731l515 208l-247 247l-268 -268v-187z" />
<glyph unicode="&#xc3;" d="M0 0v1063l474 473h286l473 -473v-1063h-349v571l-535 -217v-354h-349zM86 1726l154 517l510 -156l53 176l334 -100l-154 -514l-510 157l-53 -178zM349 731l515 208l-247 247l-268 -268v-187z" />
<glyph unicode="&#xc4;" d="M0 0v1063l474 473h286l473 -473v-1063h-349v571l-535 -217v-354h-349zM215 1653v293h291v-293h-291zM349 731l515 208l-247 247l-268 -268v-187zM743 1653v293h291v-293h-291z" />
<glyph unicode="&#xc5;" d="M0 0v1063l474 473h286l473 -473v-1063h-349v571l-535 -217v-354h-349zM349 731l515 208l-247 247l-268 -268v-187zM446 1737v172l80 80h170l80 -80v-172l-80 -80h-170zM530 1823l80 -80l80 80l-80 80z" />
<glyph unicode="&#xc6;" d="M0 0v1063l474 473h286l104 -103l103 103h266v-348h-121l-270 -270v-185l391 149v-373l-204 -78l82 -82h122v-349h-267l-430 430l-187 -76v-354h-349zM349 731l144 58v273l-144 -144v-187z" />
<glyph unicode="&#xc7;" d="M0 474v589l472 473h288l473 -473h-493l-124 123l-267 -267v-301l267 -267l124 123h493l-474 -474h-285zM203 -154h239v224h351v-574h-119h-471v350z" />
<glyph unicode="&#xc8;" d="M0 473v589l474 474h-197h956v-348h-614l-270 -270v-185l884 338v-373l-697 -267l82 -82h615v-349h-760zM231 1907h492v2l254 -254h-494z" />
<glyph unicode="&#xc9;" d="M0 473v589l474 474h759v-348h-614l-270 -270v-185l884 338v-373l-697 -267l82 -82h615v-349h-760zM264 1655l252 254v-2h494l-254 -252h-492z" />
<glyph unicode="&#xca;" d="M0 473v589l474 474h759v-348h-614l-270 -270v-185l884 338v-373l-697 -267l82 -82h615v-349h-760zM20 1653l310 311h538l310 -311h-492l-86 86h-2l-86 -86h-492z" />
<glyph unicode="&#xcb;" d="M0 473v589l474 474h759v-348h-614l-270 -270v-185l884 338v-373l-697 -267l82 -82h615v-349h-760zM203 1653v293h291v-293h-291zM731 1653v293h291v-293h-291z" />
<glyph unicode="&#xcc;" d="M0 0v349h444v839h-444v348h1233v-348h-440v-839h440v-349h-1233zM219 1907h492v2l254 -254h-494z" />
<glyph unicode="&#xcd;" d="M0 0v349h444v839h-444v348h1233v-348h-440v-839h440v-349h-1233zM252 1655l252 254v-2h493l-254 -252h-491z" />
<glyph unicode="&#xce;" d="M0 0v349h444v839h-444v348h1233v-348h-440v-839h440v-349h-1233zM41 1653l309 311h539l309 -311h-491l-86 86h-3l-86 -86h-491z" />
<glyph unicode="&#xcf;" d="M0 0v349h444v839h-444v348h1233v-348h-440v-839h440v-349h-1233zM219 1653v293h291v-293h-291zM748 1653v293h290v-293h-290z" />
<glyph unicode="&#xd0;" d="M-72 377v377l72 28v754h760l473 -473v-589l-474 -474h-759v349v56zM349 349h266l269 269v301l-268 268h-267v-262l225 92v-377l-225 -92v-199z" />
<glyph unicode="&#xd1;" d="M0 0v1536h349v-302l535 -471v773h349v-1536h-349v298l-535 471v-769h-349zM90 1726l154 517l510 -156l53 176l334 -100l-154 -514l-510 157l-53 -178z" />
<glyph unicode="&#xd2;" d="M0 474v589l472 473h288l473 -473v-589l-474 -474h-285zM219 1907h492v2l254 -254h-494zM349 618l267 -267l268 267v301l-268 267l-267 -267v-301z" />
<glyph unicode="&#xd3;" d="M0 474v589l472 473h288l473 -473v-589l-474 -474h-285zM264 1655l252 254v-2h494l-254 -252h-492zM349 618l267 -267l268 267v301l-268 267l-267 -267v-301z" />
<glyph unicode="&#xd4;" d="M0 474v589l472 473h288l473 -473v-589l-474 -474h-285zM39 1653l309 311h539l309 -311h-491l-87 86h-2l-86 -86h-491zM349 618l267 -267l268 267v301l-268 267l-267 -267v-301z" />
<glyph unicode="&#xd5;" d="M0 474v589l472 473h288l473 -473v-589l-474 -474h-285zM82 1726l154 517l509 -156l54 176l334 -100l-154 -514l-510 157l-53 -178zM349 618l267 -267l268 267v301l-268 267l-267 -267v-301z" />
<glyph unicode="&#xd6;" d="M0 474v589l472 473h288l473 -473v-589l-474 -474h-285zM213 1653v293h291v-293h-291zM349 618l267 -267l268 267v301l-268 267l-267 -267v-301zM741 1653v293h291v-293h-291z" />
<glyph unicode="&#xd7;" d="M18 766l246 246l262 -264l262 262l248 -248l-262 -262l248 -246l-246 -248l-248 248l-252 -252l-247 248l252 252z" />
<glyph unicode="&#xd8;" d="M-6 394l43 43l-37 37v589l472 473h288l188 -187l39 39l247 -247l-39 -39l38 -39v-589l-474 -474h-285l-191 191l-43 -43zM349 750l352 352l-85 84l-267 -267v-169zM530 437l86 -86l268 267v173z" />
<glyph unicode="&#xd9;" d="M0 474v1062h349v-918l267 -267l268 267v918h349v-1062l-474 -474h-285zM205 1907h491v2l254 -254h-493z" />
<glyph unicode="&#xda;" d="M0 474v1062h349v-918l267 -267l268 267v918h349v-1062l-474 -474h-285zM233 1655l252 254v-2h494l-254 -252h-492z" />
<glyph unicode="&#xdb;" d="M0 474v1062h349v-918l267 -267l268 267v918h349v-1062l-474 -474h-285zM27 1653l309 311h538l310 -311h-492l-86 86h-2l-86 -86h-491z" />
<glyph unicode="&#xdc;" d="M0 474v1062h349v-918l267 -267l268 267v918h349v-1062l-474 -474h-285zM209 1653v293h291v-293h-291zM737 1653v293h291v-293h-291z" />
<glyph unicode="&#xdd;" d="M0 866v670h349v-431l268 -105l267 104v432h349v-670l-442 -172v-694h-348v694zM291 1655l252 254v-2h493l-254 -252h-491z" />
<glyph unicode="&#xde;" d="M31 -444v1982h350v-303h258l621 -621l-613 -614l-2 2h-264v-446h-350zM381 350h121l264 264l-270 271h-115v-535z" />
<glyph unicode="&#xdf;" d="M2 0v1368l168 168h458l168 -167l-1 -1v-279l155 -74l283 -137v-878h-783v349h434v310q-93 45 -193.5 93.5t-169.5 82t-75 36.5v353h1l-48 48l-48 -48v-1224h-349z" />
<glyph unicode="&#xe0;" d="M2 479l483 -481h267l135 133v-133h348v1233h-348v-133l-135 133h-267l-483 -483v-269zM250 1604h491v2l254 -254h-493zM360 614l258 256l256 -256l-256 -258z" />
<glyph unicode="&#xe1;" d="M2 479v269l483 483h267l135 -133v133h348v-1233h-348v133l-135 -133h-267zM248 1352l252 254v-2h493l-254 -252h-491zM360 614l258 -258l256 258l-256 256z" />
<glyph unicode="&#xe2;" d="M2 479v269l483 483h267l135 -133v133h348v-1233h-348v133l-135 -133h-267zM41 1350l309 311h539l309 -311h-491l-86 86h-3l-86 -86h-491zM360 614l258 -258l256 258l-256 256z" />
<glyph unicode="&#xe3;" d="M2 479v269l483 483h267l135 -133v133h348v-1233h-348v133l-135 -133h-267zM96 1423l154 516l510 -155l53 176l334 -100l-154 -514l-510 157l-53 -178zM360 614l258 -258l256 258l-256 256z" />
<glyph unicode="&#xe4;" d="M2 479v269l483 483h267l135 -133v133h348v-1233h-348v133l-135 -133h-267zM209 1350v292h291v-292h-291zM360 614l258 -258l256 258l-256 256zM737 1350v292h291v-292h-291z" />
<glyph unicode="&#xe5;" d="M2 479v269l483 483h267l135 -133v133h348v-1233h-348v133l-135 -133h-267zM360 614l258 -258l256 258l-256 256zM457 1434v172l80 80h170l79 -80v-172l-79 -80h-170zM541 1520l80 -80l79 80l-79 79z" />
<glyph unicode="&#xe6;" d="M0 213v807l214 213h266h1l134 -134v134h292h267l59 -58v-754l-178 -72h178v-349h-618v134l-135 -134h-266l-1 -1zM347 360l257 257l-257 256v-513zM949 679l187 76l-110 110l-77 -77v-109z" />
<glyph unicode="&#xe7;" d="M23 481v269l483 483h266l483 -483h-493l-123 122l-256 -256l256 -258l123 125h493l-483 -483h-266zM223 -154h240v224h350v-574h-119h-471v350z" />
<glyph unicode="&#xe8;" d="M16 479l484 -481h749v348h-602l602 244v158l-483 483h-266l-484 -483v-269zM266 1604h492v2l254 -254h-494zM373 612l260 258l110 -108z" />
<glyph unicode="&#xe9;" d="M16 479v269l484 483h266l483 -483v-158l-602 -244h602v-348h-749zM262 1352l252 254v-2h494l-254 -252h-492zM373 612l370 150l-110 108z" />
<glyph unicode="&#xea;" d="M0 479v269l483 483h267l483 -483v-158l-602 -244h602v-348h-750zM43 1350l309 311h539l309 -311h-491l-86 86h-2l-86 -86h-492zM356 612l371 150l-111 108z" />
<glyph unicode="&#xeb;" d="M-2 479v269l483 483h267l483 -483v-158l-602 -244h602v-348h-750zM207 1350v292h291v-292h-291zM354 612l371 150l-111 108zM735 1350v292h291v-292h-291z" />
<glyph unicode="&#xec;" d="M-2 0h1233v348h-445v885h-186l-602 -227v-373l440 166v-451h-440v-348zM201 1604h491v2l254 -254h-493z" />
<glyph unicode="&#xed;" d="M2 0v348h440v451l-440 -166v373l602 227h187v-885h444v-348h-1233zM317 1352l252 254v-2h494l-254 -252h-492z" />
<glyph unicode="&#xee;" d="M4 0v348h440v451l-440 -166v373l602 227h187v-885h444v-348h-1233zM45 1350l309 311h539l309 -311h-491l-86 86h-2l-86 -86h-492z" />
<glyph unicode="&#xef;" d="M2 0v348h440v451l-440 -166v373l602 227h187v-885h444v-348h-1233zM201 1350v292h291v-292h-291zM729 1350v292h291v-292h-291z" />
<glyph unicode="&#xf0;" d="M-8 474l469 469h293h1l121 -120v269l-5 5l-69 -69h-247l160 159h-596v349h806l70 -69l33 33h247l-157 -157l107 -106v-763l-474 -474h-285zM485 474l123 -123l123 123l-123 123z" />
<glyph unicode="&#xf1;" d="M4 0v1233h348v-133l135 133h267l483 -483v-750h-348v606l-268 266l-269 -266v-473v-133h-348zM100 1423l154 516l510 -155l53 176l334 -100l-154 -514l-510 157l-53 -178z" />
<glyph unicode="&#xf2;" d="M-4 479l483 -481h266l484 483v267l-484 483h-266l-483 -483v-269zM246 1604h491v2l254 -254h-493zM356 614l256 256l256 -256l-256 -258z" />
<glyph unicode="&#xf3;" d="M-2 479v269l483 483h267l483 -483v-267l-483 -483h-267zM246 1352l252 254v-2h493l-254 -252h-491zM358 614l256 -258l256 258l-256 256z" />
<glyph unicode="&#xf4;" d="M4 479v269l483 483h267l483 -483v-267l-483 -483h-267zM41 1350l309 311h539l309 -311h-491l-86 86h-3l-86 -86h-491zM365 614l256 -258l256 258l-256 256z" />
<glyph unicode="&#xf5;" d="M0 479v269l483 483h267l483 -483v-267l-483 -483h-267zM96 1423l154 516l510 -155l53 176l334 -100l-154 -514l-510 157l-53 -178zM360 614l256 -258l256 258l-256 256z" />
<glyph unicode="&#xf6;" d="M-2 479v269l483 483h267l483 -483v-267l-483 -483h-267zM209 1350v292h291v-292h-291zM358 614l256 -258l256 258l-256 256zM737 1350v292h291v-292h-291z" />
<glyph unicode="&#xf7;" d="M0 434v350h1133v-350h-1133zM414 -2v293h291v-293h-291zM418 936v293h291v-293h-291z" />
<glyph unicode="&#xf8;" d="M4 242l119 118l-119 119v269l483 483h267l118 -119l121 119l246 -246l-119 -119l117 -118v-267l-483 -483h-267l-118 117l-119 -119zM365 614l256 -258l256 258l-256 256z" />
<glyph unicode="&#xf9;" d="M8 481l484 -483h266l135 133v-133h348v1233h-348v-133v-473l-268 -267l-269 269v604h-348v-750zM252 1604h491v2l254 -254h-493z" />
<glyph unicode="&#xfa;" d="M2 481v750h348v-604l268 -269l269 267v473v133h348v-1233h-348v133l-135 -133h-267zM248 1352l252 254v-2h493l-254 -252h-491z" />
<glyph unicode="&#xfb;" d="M-4 481v750h348v-604l268 -269l269 267v473v133h348v-1233h-348v133l-136 -133h-266zM35 1350l309 311h539l309 -311h-492l-86 86h-2l-86 -86h-491z" />
<glyph unicode="&#xfc;" d="M0 481v750h348v-604l268 -269l269 267v473v133h348v-1233h-348v133l-135 -133h-267zM203 1350v292h291v-292h-291zM731 1350v292h291v-292h-291z" />
<glyph unicode="&#xfd;" d="M4 1231h379l238 -553l235 553h379l-717 -1680h-379l291 682zM246 1352l252 254v-2h493l-254 -252h-491z" />
<glyph unicode="&#xfe;" d="M-2 -446v2048h348v-369h420l463 -463v-303l-467 -467h-416v-446h-348zM346 350h272l269 268l-266 267h-275v-535z" />
<glyph unicode="&#xff;" d="M25 1231h378l238 -553l236 553h378l-716 -1680h-379l291 682zM231 1350v292h291v-292h-291zM760 1350v292h291v-292h-291z" />
<glyph unicode="&#x152;" d="M0 474v589l472 473h288l104 -103l103 103h266v-348h-121l-270 -270v-185l391 149v-373l-204 -78l82 -82h122v-349h-267l-103 103l-104 -103h-285zM348 618l145 -145v589l-144 -144v-300h-1z" />
<glyph unicode="&#x153;" d="M0 213v807l214 213h266h1l212 -212l213 213l1 -1h267l59 -58v-754l-178 -72h178v-349h-328l-212 212l-213 -212h-266l-1 -1zM347 360l257 257l-257 256v-513zM949 679l187 76l-110 110l-77 -77v-109z" />
<glyph unicode="&#x178;" d="M0 866v670h349v-431l268 -105l267 104v432h349v-670l-442 -172v-694h-348v694zM221 1653v293h291v-293h-291zM750 1653v293h290v-293h-290z" />
<glyph unicode="&#x2c6;" d="M128 1350l309 311h539l309 -311h-491l-86 86h-2l-86 -86h-492z" />
<glyph unicode="&#x2dc;" d="M181 1423l154 516l510 -155l53 176l334 -100l-154 -514l-510 157l-53 -178z" />
<glyph unicode="&#x2000;" horiz-adv-x="1131" />
<glyph unicode="&#x2001;" horiz-adv-x="2263" />
<glyph unicode="&#x2002;" horiz-adv-x="1131" />
<glyph unicode="&#x2003;" horiz-adv-x="2263" />
<glyph unicode="&#x2004;" horiz-adv-x="754" />
<glyph unicode="&#x2005;" horiz-adv-x="565" />
<glyph unicode="&#x2006;" horiz-adv-x="377" />
<glyph unicode="&#x2007;" horiz-adv-x="377" />
<glyph unicode="&#x2008;" horiz-adv-x="282" />
<glyph unicode="&#x2009;" horiz-adv-x="452" />
<glyph unicode="&#x200a;" horiz-adv-x="125" />
<glyph unicode="&#x2010;" d="M295 430v350h823v-350h-823z" />
<glyph unicode="&#x2011;" d="M295 430v350h823v-350h-823z" />
<glyph unicode="&#x2012;" d="M295 430v350h823v-350h-823z" />
<glyph unicode="&#x2013;" d="M140 434v350h1133v-350h-1133z" />
<glyph unicode="&#x2014;" d="M84 432v348h1247v-348h-1247z" />
<glyph unicode="&#x2018;" d="M396 1114v293l127 125v2h494l-328 -330v-90h-293z" />
<glyph unicode="&#x2019;" d="M294 1116l328 330v90h292v-293l-127 -125v-2h-493z" />
<glyph unicode="&#x201a;" d="M294 -129l328 330v90h292v-293l-127 -125v-2h-493z" />
<glyph unicode="&#x201c;" d="M73 1114v293l127 125v2h493l-327 -330v-90h-293zM720 1114v293l127 125v2h493l-327 -330v-90h-293z" />
<glyph unicode="&#x201d;" d="M-30 1116l328 330v90h293v-293l-127 -125v-2h-494zM617 1116l328 330v90h293v-293l-127 -125v-2h-494z" />
<glyph unicode="&#x201e;" d="M-30 -123l328 330v90h293v-293l-127 -125v-2h-494zM617 -123l328 330v90h293v-293l-127 -125v-2h-494z" />
<glyph unicode="&#x2022;" d="M481 418v454h451v-454h-451z" />
<glyph unicode="&#x2026;" d="M-2 0v293h291v-293h-291zM422 0v293h291v-293h-291zM834 0v293h290v-293h-290z" />
<glyph unicode="&#x202f;" horiz-adv-x="452" />
<glyph unicode="&#x2039;" d="M431 258v463v141l552 256v-385l-377 -174l377 -174v-385z" />
<glyph unicode="&#x203a;" d="M431 4v385l376 174l-376 174v385l552 -258v-463v-141z" />
<glyph unicode="&#x205f;" horiz-adv-x="565" />
<glyph unicode="&#x20ac;" d="M107 799v301h353h8l436 436h361v-348h-216l-88 -88h140v-301h-322v-62h322v-294h-148l95 -94h217v-349h-362l-443 443h-346v294h316v62h-323z" />
<glyph unicode="&#x2122;" d="M-54 1049v189l712 280v-189l-267 -105v-417h-177v349zM758 807v712h175l179 -226l179 226h177v-712h-177v431l-105 -135h-1h-145l-107 135v-431h-175z" />
<glyph unicode="&#x25fc;" horiz-adv-x="1228" d="M0 0v1229h1229v-1229h-1229z" />
</font>
</defs>
</svg>
