<?xml version="1.0" standalone="no"?>
<!DOCTYPE svg PUBLIC "-//W3C//DTD SVG 1.1//EN" "http://www.w3.org/Graphics/SVG/1.1/DTD/svg11.dtd" >
<svg xmlns="http://www.w3.org/2000/svg" xmlns:xlink="http://www.w3.org/1999/xlink" version="1.1">
<metadata></metadata>
<defs>
<font id="goffbold" horiz-adv-x="1413" >
<font-face units-per-em="2048" ascent="1638" descent="-410" />
<missing-glyph horiz-adv-x="500" />
<glyph horiz-adv-x="0" />
<glyph horiz-adv-x="682" />
<glyph unicode=" " />
<glyph unicode="!" d="M471 0h266v266h-266v-266zM487 479v1123h234v-1123h-234z" />
<glyph unicode="&#x22;" d="M319 1155v381h234v-381h-234zM655 1155v381h234v-381h-234z" />
<glyph unicode="#" d="M124 297l35 231h190l33 193h-193l35 233h195l26 158h236l-25 -158h193l27 158h235l-27 -158h205l-37 -233h-204l-33 -193h209l-37 -231h-209l-27 -152h-235l24 152h-192l-27 -152h-235l26 152h-188zM585 528h194l33 193h-195z" />
<glyph unicode="$" d="M0 473h329l240 -241h95v1l210 210l-874 621l472 472h28v127h233v-127h27l473 -472h-329l-240 240h-95l-210 -210l874 -621l-473 -473h-27v-123h-233v123h-27z" />
<glyph unicode="%" d="M87 987v256l180 180h260l181 -180v-256l-183 -182h-254l-182 182h-2zM278 449l686 686l163 -164l-686 -686zM290 1114l108 -108l109 108l-109 111zM706 182v256l180 180h260l180 -180v-256l-182 -182h-254l-182 182h-2zM908 309l109 -108l108 108l-108 111z" />
<glyph unicode="&#x26;" d="M0 473l295 295l-295 295l473 473h287l473 -473l-411 -411h-98l180 -179h329l-157 -157l316 -316h-329l-151 151l-152 -151h-287zM329 473l240 -241h95v1l83 83l-287 287zM329 1063l178 -178h219l178 178l-241 241h-93z" />
<glyph unicode="'" d="M487 1155v381h234v-381h-234z" />
<glyph unicode="(" d="M361 315v967l361 358h330l-457 -454v-774l457 -457h-328z" />
<glyph unicode=")" d="M361 -45l457 455v774l-457 456h328l363 -360v-967l-361 -358h-330z" />
<glyph unicode="*" d="M369 1346l163 163l58 -57v84h233v-84l58 57l163 -163l-174 -175l172 -172l-163 -163l-56 55v-92h-233v92l-55 -55l-164 163l172 172z" />
<glyph unicode="+" d="M170 432v234h422v407h233v-407h418v-234h-418v-432h-233v432h-422z" />
<glyph unicode="," d="M387 -109l168 168v207h266v-268l-106 -107h-328z" />
<glyph unicode="-" d="M295 492v233h823v-233h-823z" />
<glyph unicode="." d="M471 0v268h266v-268h-266z" />
<glyph unicode="/" d="M328 -14l514 1626h243l-514 -1626h-243z" />
<glyph unicode="0" d="M0 473v591l472 472h288l473 -472v-591l-473 -473h-287zM232 569l337 -337h95v1l336 336v399l-336 336h-95l-337 -336v-399zM311 665h1v205l-1 1l203 202h205l202 -201v-208l-200 -200h-209l-200 201h-1zM537 768l80 -79l79 79l-79 79z" />
<glyph unicode="1" d="M0 0v232h500v1017l-125 -48h-375v232h331l266 103h136v-1304h500v-232h-1233z" />
<glyph unicode="2" d="M0 0v249l897 822l-233 233h-95l-240 -240h-329l472 472h288l473 -472l-907 -831h907v-233h-1233z" />
<glyph unicode="3" d="M0 473h329l240 -241h95v1l240 240l-180 179h-251v233h252l179 179l-240 240h-95l-240 -240h-329l472 472h288l473 -472l-296 -296l296 -295l-473 -473h-287z" />
<glyph unicode="4" d="M0 499v171l956 866h152v-804h125v-233h-125v-499h-232v499h-876zM414 732h462v418z" />
<glyph unicode="5" d="M0 473h329l240 -241h95v1l240 240l-179 178h-654v885h1035v-232h-802v-421h518l411 -410l-473 -473h-287z" />
<glyph unicode="6" d="M0 473v590l473 473h633v-232h-536l-338 -337v-262l241 240h287v1l473 -473l-473 -473h-287zM329 473l240 -241h95v1l240 240l-240 240h-95z" />
<glyph unicode="7" d="M0 1304v232h1232v-232l-894 -1304h-282l895 1304h-951z" />
<glyph unicode="8" d="M0 473l295 295l-295 295l473 473h287l473 -473l-295 -295l295 -295l-473 -473h-287zM329 473l240 -241h95v1l240 240l-180 179h-216zM329 1063l178 -178h219l178 178l-241 241h-93z" />
<glyph unicode="9" d="M0 1063l473 473h287l473 -473v-590l-473 -473h-633v232h536l337 337v262l-240 -240h-287zM329 1063l240 -240h95l240 240v1l-240 240h-95l-240 -240v-1z" />
<glyph unicode=":" d="M470 0v268h266v-268h-266zM472 965v268h266v-268h-266z" />
<glyph unicode=";" d="M386 -109l168 168v207h266v-268l-106 -107h-328zM556 965v268h266v-268h-266z" />
<glyph unicode="&#x3c;" d="M167 498v118l1079 500v-256l-655 -303l655 -303v-256z" />
<glyph unicode="=" d="M170 330v231h1073v-231h-1073zM170 758v231h1073v-231h-1073z" />
<glyph unicode="&#x3e;" d="M167 10v256l655 303l-655 303v256l1079 -499v-119z" />
<glyph unicode="?" d="M55 1063l473 473h288l472 -473l-471 -471h-29v-182h-233v414h166l238 239l-240 241h-94l-241 -241h-329zM538 0v267h267v-267h-267z" />
<glyph unicode="@" d="M3 408v722l406 406h704l121 -121v-825v-273v-6h-232v43l-43 -43h-389l-276 275v391l276 274h389l43 -41v95h-497l-268 -271v-530l270 -273h510v-231h-606zM527 684l140 -141h196l139 141v197l-139 139h-196l-140 -139v-197z" />
<glyph unicode="A" d="M0 0v1064l472 472h288l473 -472v-1064h-1h-232v691l-767 -307h-1v-384h-232zM232 634h1l767 307v27l-336 336h-95l-337 -336v-334z" />
<glyph unicode="B" d="M0 0v1536h760l473 -472l-752 -295l752 -296l-473 -473h-760zM232 232h432v1l154 153l-586 231v-385zM232 921l585 230l-153 153h-432v-383z" />
<glyph unicode="C" d="M0 473v591l472 472h288l473 -473h-328l-241 241h-95l-337 -336v-399l337 -337h95v1l241 241h328l-473 -474h-287z" />
<glyph unicode="D" d="M0 0v1536h760l473 -472v-591l-473 -473h-760zM232 232h432v1l336 336v399l-336 336h-432v-1072z" />
<glyph unicode="E" d="M0 473v590l473 473h590h170v-233h-266h-398l-337 -336v-283l1001 388v-250l-904 -350l240 -239h397h267v-233h-170h-590z" />
<glyph unicode="F" d="M0 0v1063l473 473h590h170v-233h-266h-398l-337 -336v-283l1001 388v-250l-1001 -388v-434h-232z" />
<glyph unicode="G" d="M0 473v591l472 472h288l473 -473h-328l-241 241h-95l-337 -336v-399l337 -337h95v1l303 303h-351v232h617v-768h-233v241l-240 -241h-287z" />
<glyph unicode="H" d="M0 0v1536h232v-797l768 304v493h233v-1536h-233v793l-768 -304v-489h-232z" />
<glyph unicode="I" d="M0 0v232h500v1072h-500v232h1233v-232h-500v-1072h500v-232h-1233z" />
<glyph unicode="J" d="M0 474h328l241 -241v-1h95l336 337v967h233v-1063l-473 -473h-287z" />
<glyph unicode="K" d="M0 0v1536h232v-641l1001 392v-249l-675 -265l675 -263v-510h-233v351l-768 299v-650h-232z" />
<glyph unicode="L" d="M0 0v1536h232v-1304h432v1l241 241h328l-473 -474h-760z" />
<glyph unicode="M" d="M0 0v1536h233l383 -383l384 383h233v-1536h-233v1208l-384 -384l-383 384v-1208h-233z" />
<glyph unicode="N" d="M0 0v1536h233v-270l767 -692v962h233v-1536h-233v261l-767 692v-953h-233z" />
<glyph unicode="O" d="M0 473v591l472 472h288l473 -472v-591l-473 -473h-287zM232 569l337 -337h95v1l336 336v399l-336 336h-95l-337 -336v-399z" />
<glyph unicode="P" d="M0 0v1536h760l473 -472l-1001 -392v-672h-232zM232 921l585 230l-153 153h-432v-383z" />
<glyph unicode="Q" d="M0 473v591l472 472h288l473 -472v-591l-473 -473h-28v-73h224v-232h-456v305h-27zM232 569l268 -267v112h232v-113l268 268v399l-336 336h-95l-337 -336v-399z" />
<glyph unicode="R" d="M0 0v1536h760l473 -472l-709 -278l709 -276v-510h-233v351l-768 299v-650h-232zM232 921l585 230l-153 153h-432v-383z" />
<glyph unicode="S" d="M0 473h329l240 -241h95v1l210 210l-874 621l472 472h288l473 -472h-329l-240 240h-95l-210 -210l874 -621l-473 -473h-287z" />
<glyph unicode="T" d="M0 813v249l1233 477v-249l-500 -194v-1096h-233v1006z" />
<glyph unicode="U" d="M0 473v1063h232v-967l337 -337h95v1l336 336v967h233v-1063l-473 -473h-287z" />
<glyph unicode="V" d="M0 1536h244l372 -1179l373 1179h244l-486 -1536h-262z" />
<glyph unicode="W" d="M0 1536h235l133 -964l134 491h229l134 -491l133 964h235l-213 -1536h-241l-163 599l-162 -599h-241z" />
<glyph unicode="X" d="M0 0v544l383 221l-383 220v551h232v-416l384 -221l384 221v416h233v-551l-384 -220l384 -221v-544h-233v410l-384 221l-384 -222v-409h-232z" />
<glyph unicode="Y" d="M0 933v603h232v-445l384 -150l384 150v445h233v-603l-500 -196v-737h-233v737z" />
<glyph unicode="Z" d="M0 0v311l993 993h-424l-240 -240h-329l472 472h761v-321l-982 -982v-1h413v1l240 240h329l-473 -473h-760z" />
<glyph unicode="[" d="M470 2v111v1378v111v233h473v-233h-240v-111v-1378v-111h240v-233h-473v233z" />
<glyph unicode="\" d="M329 1612h243l512 -1626h-243z" />
<glyph unicode="]" d="M470 2h240v111v1378v111h-240v233h473v-233v-111v-1378v-111v-233h-473v233z" />
<glyph unicode="^" d="M147 459l500 1079h119l500 -1079h-256l-303 655l-304 -655h-256z" />
<glyph unicode="_" d="M-2 0h1253v-233h-1253v233z" />
<glyph unicode="`" d="M445 1548h330v-2l193 -192h-328z" />
<glyph unicode="a" d="M0 344v541l346 346h539l114 -115v115h234v-1233h-234v115l-114 -115h-539zM233 440l211 -211h344l211 213v344l-211 213h-346l-209 -211v-348z" />
<glyph unicode="b" d="M1 0v1536v66h233v-66v-416l113 113h539l348 -346v-541h-2l-346 -346h-537h-2l-113 115v-115h-233zM234 442l211 -211h345l210 213v347l-210 210h-347l-209 -210v-349z" />
<glyph unicode="c" d="M-1 344v541l346 346h539l348 -346h-330l-115 114h-346l-209 -211v-348l211 -211h344l115 115h328l-346 -346h-537h-2z" />
<glyph unicode="d" d="M-2 348v541l348 346h537l114 -113v416v66h234v-66v-1538h-234v117l-114 -115h-537zM229 446l213 -213h344l211 211v349l-211 211h-344l-213 -211v-347z" />
<glyph unicode="e" d="M1 344v541l346 346h539l348 -346v-195l-901 -348l112 -113h345l114 115h328l-346 -346h-539zM232 553l723 281l-165 165h-347l-211 -211v-235z" />
<glyph unicode="f" d="M1 518v248l481 186v301l346 349h406v-234h-309l-211 -211v-115l520 201v-248l-520 -202v-793h-232v705z" />
<glyph unicode="g" d="M-3 -96h330l112 -115h346l211 211v115l-114 -115h-537h-2l-346 346v541l346 346h539l114 -115v115h234v-1329l-348 -348h-539zM230 442l211 -211h344l211 213v344l-211 213h-346l-209 -210v-349z" />
<glyph unicode="h" d="M1 0v1602h233v-484l113 115h539l348 -346v-541v-346h-234v444v344l-210 213h-347l-209 -210v-791h-233z" />
<glyph unicode="i" d="M3 0v231h502v717l-502 -194v250l598 229h135v-1002h500v-231h-1233zM490 1333v269h269v-269h-269z" />
<glyph unicode="j" d="M1 -100h328l114 -113h347l208 209v911v41l-499 -194v250l596 229h137v-1333l-346 -346h-539zM986 1333v269h266v-269h-266z" />
<glyph unicode="k" d="M0 0v1602h233v-918l1000 389v-250l-297 -114v-2l297 -115v-592h-234v432l-387 150l-379 -148v-434h-233z" />
<glyph unicode="l" d="M0 1126v250l575 226h134v-1371h530v-231h-530h-234v1313z" />
<glyph unicode="m" d="M1 0v1233h233v-115l113 115l166 -164l104 -104l105 104l164 164l346 -344l2 -4v-885h-234v788l-28 31l-86 86l-152 -151v-754h-233v752l-152 153l-61 -61l-54 -60v-784h-233z" />
<glyph unicode="n" d="M1 0v1233h233v-115l113 115h539l348 -346v-541v-346h-234v444v344l-210 213h-347l-209 -210v-791h-233z" />
<glyph unicode="o" d="M1 346v541l346 346h539l348 -346v-541h-2l-346 -346h-537h-2zM234 442l211 -211h345l210 213v344l-210 213h-347l-209 -210v-349z" />
<glyph unicode="p" d="M1 -446v1679h233v-113l113 113h539l348 -346v-541h-2l-346 -346h-539l-113 115v-561h-233zM232 444l211 -211h347l210 211v347l-210 210h-347l-211 -210h2v-347h-2z" />
<glyph unicode="q" d="M0 346v541l348 346h537l114 -113v113h234v-1679h-234v561l-114 -115h-537zM231 444l213 -211h344l211 211v347l-211 210h-344l-213 -210v-347z" />
<glyph unicode="r" d="M0 0v231h506v719l-506 -194v250l598 227h141v-115l115 115h297v-232h-201l-211 -210v-560h494v-231h-1233z" />
<glyph unicode="s" d="M1 346h330l112 -115h347l94 95l-883 497v64l346 346h539l348 -346h-330l-114 114h-347l-100 -102l891 -502v-49l-348 -348h-539z" />
<glyph unicode="t" d="M-1 512v250l481 184v414h234v-324l518 199v-248l-518 -201v-784h-234v694z" />
<glyph unicode="u" d="M1 348v539v346h231v-442v-347l213 -213h345l210 211v791h234v-1233h-234v115l-114 -115h-537z" />
<glyph unicode="v" d="M5 1233h254l363 -848l362 848h254l-528 -1233h-176z" />
<glyph unicode="w" d="M0 1233h238l108 -559l111 559h319l109 -559l110 559h238l-242 -1233h-211l-164 838l-163 -838h-211z" />
<glyph unicode="x" d="M1 0v418v69l320 138l-320 137v55v416h233v-262v-56l383 -165l383 163v56v264h234v-416v-55l-320 -137l320 -138v-69v-418h-234v264v70l-383 164l-385 -164v-70v-264h-231z" />
<glyph unicode="y" d="M5 1231h254l363 -848l362 848h254l-528 -1233l-193 -447h-252l230 537z" />
<glyph unicode="z" d="M1 -2v231l879 770h-435l-114 -114h-330l348 346h885v-232l-879 -770h435l114 117h330l-348 -348h-885z" />
<glyph unicode="{" d="M388 549v430l164 164v348v111v233h473v-233h-240v-111v-444h-2l-282 -283l282 -283h2v-368v-111h240v-233h-473v233v111v272z" />
<glyph unicode="|" d="M591 -111v1764h231v-1764h-231z" />
<glyph unicode="}" d="M388 -2h242v111v368l282 283l-282 282v445v110h-242v234h473v-234v-110v-348l164 -164v-430l-164 -164v-272v-111v-234h-473v234z" />
<glyph unicode="~" horiz-adv-x="1415" d="M157 555l182 254l637 -152l94 131l188 -137l-184 -256l-637 152l-92 -129z" />
<glyph unicode="&#xa0;" />
<glyph unicode="&#xa1;" d="M573 1274h267v266h-267v-266zM590 -61v1122h233v-1122h-233z" />
<glyph unicode="&#xa2;" d="M-1 346v541l346 346h156v123h233v-123h150l348 -346h-330l-115 114h-53v-770h53l115 115h328l-346 -346h-150v-123h-233v123h-154h-2zM232 442l211 -211h58v770h-60l-209 -210v-349z" />
<glyph unicode="&#xa3;" d="M-6 0v232h196v1l225 225v115l-261 -99v249l261 99v367l347 347h471v-232h-374l-211 -211v-183l518 196v-249l-518 -196v-299l-130 -130h715v-232h-1239z" />
<glyph unicode="&#xa4;" d="M233 526l56 56l-51 53v391l55 55l-55 56l163 163l56 -55l55 55h391l51 -51l56 58l164 -166l-56 -56l60 -59v-391l-54 -53l56 -56l-164 -166l-55 58l-58 -60h-391l-57 60l-58 -56zM469 731l139 -139h199l139 139v197l-139 141h-199l-139 -141v-197z" />
<glyph unicode="&#xa5;" d="M0 933v603h232v-445l384 -150l384 150v445h233v-603l-500 -196v-737h-233v737zM80 137v232h1073v-232h-1073zM80 471v231h1073v-231h-1073z" />
<glyph unicode="&#xa6;" d="M588 844v788h233v-788h-233zM592 -147v843h233v-843h-233z" />
<glyph unicode="&#xa7;" d="M1 346h330l114 -115h345l94 93l-883 499v62l156 155l-156 88v64l346 346h539l348 -346h-330l-114 115h-347l-100 -103l891 -502v-51l-164 -164l164 -92v-49l-348 -348h-537zM343 897q272 -154 516 -291v2l25 23q-274 156 -516 291z" />
<glyph unicode="&#xa8;" d="M321 1354v268h266v-268h-266zM826 1354v268h267v-268h-267z" />
<glyph unicode="&#xa9;" d="M-168 481v602v47l496 494h469l499 -498v-649l-493 -495h-471zM66 578l362 -363h279l358 358v457l-365 363h-276l-358 -359v-456zM184 612v389l275 277h217l276 -277h-329l-43 43h-25l-137 -139v-196l137 -138h25l43 41h329l-276 -274h-217z" />
<glyph unicode="&#xaa;" d="M158 934v2v305l295 295h350q1 0 8 -7l23.5 -23.5t31.5 -30.5v61h232v-897h-232v63l-63 -63h-350zM389 1030l160 -158h158l159 158v115l-159 160h-158l-160 -160v-115z" />
<glyph unicode="&#xab;" d="M139 394v119l527 244v-257l-101 -46l101 -47v-256zM747 394v119l527 244v-257l-101 -46l101 -47v-256z" />
<glyph unicode="&#xac;" d="M285 711v233h843v-233v-279h-231v279h-612z" />
<glyph unicode="&#xad;" d="M295 492v233h823v-233h-823z" />
<glyph unicode="&#xae;" d="M-172 477v602v47l496 494h497l500 -498v-649l-494 -496h-499zM61 573l363 -362h307l359 358v457l-365 363h-305l-359 -359v-457zM305 389v840h234h145l190 -191v-200l-131 -47l117 -41v-363h-231v240l-90 41v-279h-234zM539 915l2 -2l57 72l-10 10h-49v-80z" />
<glyph unicode="&#xb0;" d="M401 1128h2v205h-2l203 203h207l201 -201v-209l-201 -200h-207l-201 202h-2zM629 1231l80 -80l77 80l-79 80z" />
<glyph unicode="&#xb1;" d="M140 0v233h1133v-233h-1133zM140 496v233h447l-2 344h233l2 -344l453 2v-235h-453v-211h-233v211h-447z" />
<glyph unicode="&#xb2;" d="M411 802v119l430 395l-112 111h-45l-115 -115h-158l227 227h138l226 -227l-435 -398h435v-112h-591z" />
<glyph unicode="&#xb3;" d="M411 1027h158l115 -115h45l115 115l-86 86h-120v111h121l85 86l-115 115h-45l-115 -115h-158l227 226h137l227 -226l-142 -142l142 -141l-227 -227h-137z" />
<glyph unicode="&#xb4;" d="M445 1354l193 192v2h330l-193 -194h-330z" />
<glyph unicode="&#xb5;" d="M-1 -446v1679h233v-789l211 -211h344l211 211v789h232v-1233h-232v115l-114 -115h-537h-2l-113 115v-561h-233z" />
<glyph unicode="&#xb6;" d="M1 770v410l358 358h873v-233h-230v-1530h-233v1530h-176v-1530h-234v635z" />
<glyph unicode="&#xb7;" d="M573 633v268h267v-268h-267z" />
<glyph unicode="&#xb8;" d="M514 -164h152v164h233v-295v-102h-385v233z" />
<glyph unicode="&#xb9;" d="M411 800v111h240v488l-60 -24h-180v112h159l127 49h65v-625h240v-111h-591z" />
<glyph unicode="&#xba;" d="M411 1027v283l227 226h137l227 -226v-283l-227 -227h-137zM523 1073l161 -161h45l161 161v191l-161 161h-45l-161 -161v-191z" />
<glyph unicode="&#xbb;" d="M139 151v256l101 47l-101 46v257l527 -244v-119zM747 151v256l101 47l-101 46v257l527 -244v-119z" />
<glyph unicode="&#xbc;" d="M0 800v111h240v488l-60 -24h-180v112h159l127 49h65v-625h240v-111h-591zM121 185l916 916l43 -42l-917 -917zM621 239v82l459 416h73v-386h59v-112h-59v-239h-112v239h-420zM820 351h221v200z" />
<glyph unicode="&#xbd;" d="M0 800v111h240v488l-60 -24h-180v112h159l127 49h65v-625h240v-111h-591zM121 185l916 916l43 -42l-917 -917zM642 -2v120l430 394l-112 112h-46l-115 -115h-157l226 226h138l227 -226l-435 -399h435v-112h-591z" />
<glyph unicode="&#xbe;" d="M12 1027h157l115 -115h46l115 115l-86 86h-121v111h121l86 86l-115 115h-46l-115 -115h-157l226 226h138l226 -226l-142 -142l142 -141l-226 -227h-138zM121 185l916 916l43 -42l-917 -917zM621 239v82l459 416h73v-386h59v-112h-59v-239h-112v239h-420zM820 351h221v200 z" />
<glyph unicode="&#xbf;" d="M36 475l471 471h29v182h232v-414h-165l-239 -239l241 -241h94l241 241h328l-472 -473h-288zM518 1271v267h268v-267h-268z" />
<glyph unicode="&#xc0;" d="M0 0v1064l472 472h288l473 -472v-1064h-1h-232v691l-767 -307h-1v-384h-232zM232 634h1l767 307v27l-336 336h-95l-337 -336v-334zM336 1851h330v-2l192 -192h-328z" />
<glyph unicode="&#xc1;" d="M0 0v1064l472 472h288l473 -472v-1064h-1h-232v691l-767 -307h-1v-384h-232zM232 634h1l767 307v27l-336 336h-95l-337 -336v-334zM336 1657l192 192v2h330l-192 -194h-330z" />
<glyph unicode="&#xc2;" d="M0 0v1064l472 472h288l473 -472v-1064h-1h-232v691l-767 -307h-1v-384h-232zM231 1657l283 282h178l281 -282h-328l-43 43l-43 -43h-328zM232 634h1l767 307v27l-336 336h-95l-337 -336v-334z" />
<glyph unicode="&#xc3;" d="M0 0v1064l472 472h288l473 -472v-1064h-1h-232v691l-767 -307h-1v-384h-232zM162 1739l110 362l510 -157l43 141l224 -70l-43 -141l-70 -221l-508 157l-2 -2l-43 -139zM232 634h1l767 307v27l-336 336h-95l-337 -336v-334z" />
<glyph unicode="&#xc4;" d="M0 0v1064l472 472h288l473 -472v-1064h-1h-232v691l-767 -307h-1v-384h-232zM121 537zM232 634h1l767 307v27l-336 336h-95l-337 -336v-334zM233 1657v268h267v-268h-267zM739 1657v268h267v-268h-267z" />
<glyph unicode="&#xc5;" d="M0 0v1064l472 472h288l473 -472v-1064h-1h-232v691l-767 -307h-1v-384h-232zM232 634h1l767 307v27l-336 336h-95l-337 -336v-334zM461 1737v172l80 80h170l80 -80v-172l-80 -80h-170zM545 1823l80 -80l80 80l-80 80z" />
<glyph unicode="&#xc6;" d="M0 0v1064l472 472h288l104 -103l103 103h265v-233h-170l-336 -336v-283l506 196v-249l-410 -159l240 -239h170v-233h-266l-473 473v15l-260 -104h-1v-384h-232zM232 634h1l260 104v325l206 206l-35 35h-95l-337 -336v-334z" />
<glyph unicode="&#xc7;" d="M0 473v591l472 472h288l473 -473h-328l-241 241h-95l-337 -336v-399l337 -337h95v1l241 241h328l-473 -474h-287zM348 -158h152v164h233v-295v-102h-385v233zM3048 474z" />
<glyph unicode="&#xc8;" d="M0 473v590l473 473h590h170v-233h-266h-398l-337 -336v-283l1001 388v-250l-904 -350l240 -239h397h267v-233h-170h-590zM336 1851h330v-2l192 -192h-328z" />
<glyph unicode="&#xc9;" d="M0 473v590l473 473h590h170v-233h-266h-398l-337 -336v-283l1001 388v-250l-904 -350l240 -239h397h267v-233h-170h-590zM336 1657l192 192v2h330l-192 -194h-330z" />
<glyph unicode="&#xca;" d="M0 473v590l473 473h590h170v-233h-266h-398l-337 -336v-283l1001 388v-250l-904 -350l240 -239h397h267v-233h-170h-590zM231 1657l283 282h178l281 -282h-328l-43 43l-43 -43h-328z" />
<glyph unicode="&#xcb;" d="M0 473v590l473 473h590h170v-233h-266h-398l-337 -336v-283l1001 388v-250l-904 -350l240 -239h397h267v-233h-170h-590zM233 1657v268h267v-268h-267zM739 1657v268h267v-268h-267z" />
<glyph unicode="&#xcc;" d="M0 0v232h500v1072h-500v232h1233v-232h-500v-1072h500v-232h-1233zM336 1851h330v-2l192 -192h-328z" />
<glyph unicode="&#xcd;" d="M0 0v232h500v1072h-500v232h1233v-232h-500v-1072h500v-232h-1233zM336 1657l192 192v2h330l-192 -194h-330z" />
<glyph unicode="&#xce;" d="M0 0v232h500v1072h-500v232h1233v-232h-500v-1072h500v-232h-1233zM231 1657l283 282h178l281 -282h-328l-43 43l-43 -43h-328z" />
<glyph unicode="&#xcf;" d="M0 0v232h500v1072h-500v232h1233v-232h-500v-1072h500v-232h-1233zM233 1657v268h267v-268h-267zM739 1657v268h267v-268h-267z" />
<glyph unicode="&#xd0;" d="M-99 562v249l99 39v686h760l473 -472v-591l-473 -473h-760v601zM232 232h432v1l336 336v399l-336 336h-432v-363l110 43v-249l-110 -43v-460z" />
<glyph unicode="&#xd1;" d="M0 0v1536h233v-270l767 -692v962h233v-1536h-233v261l-767 692v-953h-233zM162 1739l110 362l510 -157l43 141l224 -70l-43 -141l-70 -221l-508 157l-2 -2l-43 -139z" />
<glyph unicode="&#xd2;" d="M0 473v591l472 472h288l473 -472v-591l-473 -473h-287zM232 569l337 -337h95v1l336 336v399l-336 336h-95l-337 -336v-399zM336 1851h330v-2l192 -192h-328z" />
<glyph unicode="&#xd3;" d="M0 473v591l472 472h288l473 -472v-591l-473 -473h-287zM232 569l337 -337h95v1l336 336v399l-336 336h-95l-337 -336v-399zM336 1657l192 192v2h330l-192 -194h-330z" />
<glyph unicode="&#xd4;" d="M0 473v591l472 472h288l473 -472v-591l-473 -473h-287zM231 1657l283 282h178l281 -282h-328l-43 43l-43 -43h-328zM232 569l337 -337h95v1l336 336v399l-336 336h-95l-337 -336v-399z" />
<glyph unicode="&#xd5;" d="M0 473v591l472 472h288l473 -472v-591l-473 -473h-287zM162 1739l110 362l510 -157l43 141l224 -70l-43 -141l-70 -221l-508 157l-2 -2l-43 -139zM232 569l337 -337h95v1l336 336v399l-336 336h-95l-337 -336v-399z" />
<glyph unicode="&#xd6;" d="M0 473v591l472 472h288l473 -472v-591l-473 -473h-287zM232 569l337 -337h95v1l336 336v399l-336 336h-95l-337 -336v-399zM233 1657v268h267v-268h-267zM739 1657v268h267v-268h-267z" />
<glyph unicode="&#xd7;" d="M242 164l305 305l-299 299l166 164l299 -297l286 287l166 -164l-288 -289l294 -295l-163 -166l-295 297l-307 -307z" />
<glyph unicode="&#xd8;" d="M-2 314l80 81l-78 78v591l472 472h288l230 -229l80 79l164 -164l-80 -80l79 -78v-591l-473 -473h-287l-231 230l-80 -80zM232 569l10 -10l584 583l-162 162h-95l-337 -336v-399zM407 395l162 -163h95v1l336 336v399l-10 10z" />
<glyph unicode="&#xd9;" d="M0 473v1063h232v-967l337 -337h95v1l336 336v967h233v-1063l-473 -473h-287zM336 1851h330v-2l192 -192h-328z" />
<glyph unicode="&#xda;" d="M0 473v1063h232v-967l337 -337h95v1l336 336v967h233v-1063l-473 -473h-287zM336 1657l192 192v2h330l-192 -194h-330z" />
<glyph unicode="&#xdb;" d="M0 473v1063h232v-967l337 -337h95v1l336 336v967h233v-1063l-473 -473h-287zM231 1657l283 282h178l281 -282h-328l-43 43l-43 -43h-328z" />
<glyph unicode="&#xdc;" d="M0 473v1063h232v-967l337 -337h95v1l336 336v967h233v-1063l-473 -473h-287zM233 1657v268h267v-268h-267zM739 1657v268h267v-268h-267z" />
<glyph unicode="&#xdd;" d="M0 933v603h232v-445l384 -150l384 150v445h233v-603l-500 -196v-737h-233v737zM336 1657l192 192v2h330l-192 -194h-330z" />
<glyph unicode="&#xde;" d="M3 -446v1982h234v-303h374l621 -619l-615 -614h-380v-446h-234zM237 231h284l383 383l-389 387h-278v-770z" />
<glyph unicode="&#xdf;" d="M0 -2v1436l168 168h360l148 -149v-492l109 -62l448 -252l-647 -647h-130v232h33l362 362l-407 230v513l-33 32h-147l-31 -31v-1340h-233z" />
<glyph unicode="&#xe0;" d="M0 344v541l346 346h539l114 -115v115h234v-1233h-234v115l-114 -115h-539zM233 440l211 -211h344l211 213v344l-211 213h-346l-209 -211v-348zM358 1548h330v-2l193 -192h-328z" />
<glyph unicode="&#xe1;" d="M0 344v541l346 346h539l114 -115v115h234v-1233h-234v115l-114 -115h-539zM233 440l211 -211h344l211 213v344l-211 213h-346l-209 -211v-348zM356 1354l193 192v2h330l-193 -194h-330z" />
<glyph unicode="&#xe2;" d="M0 344v541l346 346h539l114 -115v115h234v-1233h-234v115l-114 -115h-539zM233 440l211 -211h344l211 213v344l-211 213h-346l-209 -211v-348zM256 1354l283 282h178l280 -282h-327l-43 43l-43 -43h-328z" />
<glyph unicode="&#xe3;" d="M0 344v541l346 346h539l114 -115v115h234v-1233h-234v115l-114 -115h-539zM176 1411l111 363l510 -158l43 141l223 -69l-43 -142l-70 -221l-508 158l-2 -2l-43 -140zM233 440l211 -211h344l211 213v344l-211 213h-346l-209 -211v-348z" />
<glyph unicode="&#xe4;" d="M0 344v541l346 346h539l114 -115v115h234v-1233h-234v115l-114 -115h-539zM233 440l211 -211h344l211 213v344l-211 213h-346l-209 -211v-348zM236 1354v268h266v-268h-266zM741 1354v268h267v-268h-267z" />
<glyph unicode="&#xe5;" horiz-adv-x="1384" d="M0 344v541l346 346h539l114 -115v115h234v-1233h-234v115l-114 -115h-539zM233 440l211 -211h344l211 213v344l-211 213h-346l-209 -211v-348zM442 1434v172l80 80h170l80 -80v-172l-80 -80h-170zM526 1520l80 -80l80 80l-80 79z" />
<glyph unicode="&#xe6;" d="M0 0v1234h384l115 -115v115h232v-115l115 115h387v-233h-291l-211 -211v-234l502 194v-249l-403 -156l112 -113h291v-232h-387l-115 114v-114h-232v115l-115 -115h-384zM232 232h55l212 212v346l-212 211h-55v-768v-1z" />
<glyph unicode="&#xe7;" d="M-1 344v541l346 346h539l348 -346h-330l-115 114h-346l-209 -211v-348l211 -211h344l115 115h328l-346 -346h-537h-2zM348 -158h152v164h233v-295v-102h-385v233z" />
<glyph unicode="&#xe8;" d="M2 344v541l346 346h539l348 -346v-195l-901 -348l112 -113h345l114 115h328l-346 -346h-539zM233 553l723 281l-165 165h-347l-211 -211v-235zM358 1548h330v-2l193 -192h-328z" />
<glyph unicode="&#xe9;" d="M2 344v541l346 346h539l348 -346v-195l-901 -348l112 -113h345l114 115h328l-346 -346h-539zM233 553l723 281l-165 165h-347l-211 -211v-235zM356 1354l193 192v2h330l-193 -194h-330z" />
<glyph unicode="&#xea;" d="M2 344v541l346 346h539l348 -346v-195l-901 -348l112 -113h345l114 115h328l-346 -346h-539zM233 553l723 281l-165 165h-347l-211 -211v-235zM256 1354l283 282h178l280 -282h-327l-43 43l-43 -43h-328z" />
<glyph unicode="&#xeb;" d="M2 344v541l346 346h539l348 -346v-195l-901 -348l112 -113h345l114 115h328l-346 -346h-539zM233 553l723 281l-165 165h-347l-211 -211v-235zM236 1354v268h266v-268h-266zM741 1354v268h267v-268h-267z" />
<glyph unicode="&#xec;" d="M3 0v231h502v717l-502 -194v250l598 229h135v-1002h500v-231h-1233zM358 1548h330v-2l193 -192h-328z" />
<glyph unicode="&#xed;" d="M3 0v231h502v717l-502 -194v250l598 229h135v-1002h500v-231h-1233zM356 1354l193 192v2h330l-193 -194h-330z" />
<glyph unicode="&#xee;" d="M3 0v231h502v717l-502 -194v250l598 229h135v-1002h500v-231h-1233zM256 1354l283 282h178l280 -282h-327l-43 43l-43 -43h-328z" />
<glyph unicode="&#xef;" d="M3 0v231h502v717l-502 -194v250l598 229h135v-1002h500v-231h-1233zM236 1354v268h266v-268h-266zM741 1354v268h267v-268h-267z" />
<glyph unicode="&#xf0;" d="M0 473l473 473v-1h287l240 -240v262l-172 172l-76 -76h-329l240 241h-536v232h633l68 -68l68 68h329l-233 -232l241 -241v-590l-473 -473h-287zM329 473l240 -240v-1h95l240 241l-240 240h-95z" />
<glyph unicode="&#xf1;" d="M1 0v1233h233v-115l113 115h539l348 -346v-541v-346h-234v444v344l-210 213h-347l-209 -210v-791h-233zM176 1411l111 363l510 -158l43 141l223 -69l-43 -142l-70 -221l-508 158l-2 -2l-43 -140z" />
<glyph unicode="&#xf2;" d="M1 346v541l346 346h539l348 -346v-541h-2l-346 -346h-537h-2zM234 442l211 -211h345l210 213v344l-210 213h-347l-209 -210v-349zM358 1548h330v-2l193 -192h-328z" />
<glyph unicode="&#xf3;" d="M1 346v541l346 346h539l348 -346v-541h-2l-346 -346h-537h-2zM234 442l211 -211h345l210 213v344l-210 213h-347l-209 -210v-349zM356 1354l193 192v2h330l-193 -194h-330z" />
<glyph unicode="&#xf4;" d="M1 346v541l346 346h539l348 -346v-541h-2l-346 -346h-537h-2zM234 442l211 -211h345l210 213v344l-210 213h-347l-209 -210v-349zM256 1354l283 282h178l280 -282h-327l-43 43l-43 -43h-328z" />
<glyph unicode="&#xf5;" d="M1 346v541l346 346h539l348 -346v-541h-2l-346 -346h-537h-2zM176 1411l111 363l510 -158l43 141l223 -69l-43 -142l-70 -221l-508 158l-2 -2l-43 -140zM234 442l211 -211h345l210 213v344l-210 213h-347l-209 -210v-349z" />
<glyph unicode="&#xf6;" d="M1 346v541l346 346h539l348 -346v-541h-2l-346 -346h-537h-2zM234 442l211 -211h345l210 213v344l-210 213h-347l-209 -210v-349zM236 1354v268h266v-268h-266zM741 1354v268h267v-268h-267z" />
<glyph unicode="&#xf7;" d="M103 426v233h1133v-233h-1133zM540 807v268h266v-268h-266zM542 0v268h266v-268h-266z" />
<glyph unicode="&#xf8;" d="M-1 162l92 92l-92 90v541l346 346h539l92 -92l92 92l164 -164l-92 -92l92 -90v-541h-2l-346 -346h-539l-90 90l-92 -90zM230 440l25 -22l557 557l-25 24h-346l-211 -211v-348zM419 254l22 -25h346l211 213v344l-22 25z" />
<glyph unicode="&#xf9;" d="M1 348v539v346h231v-442v-347l213 -213h345l210 211v791h234v-1233h-234v115l-114 -115h-537zM358 1548h330v-2l193 -192h-328z" />
<glyph unicode="&#xfa;" d="M1 348v539v346h231v-442v-347l213 -213h345l210 211v791h234v-1233h-234v115l-114 -115h-537zM356 1354l193 192v2h330l-193 -194h-330z" />
<glyph unicode="&#xfb;" d="M1 348v539v346h231v-442v-347l213 -213h345l210 211v791h234v-1233h-234v115l-114 -115h-537zM256 1354l283 282h178l280 -282h-327l-43 43l-43 -43h-328z" />
<glyph unicode="&#xfc;" d="M1 348v539v346h231v-442v-347l213 -213h345l210 211v791h234v-1233h-234v115l-114 -115h-537zM236 1354v268h266v-268h-266zM741 1354v268h267v-268h-267z" />
<glyph unicode="&#xfd;" d="M0 1231l489 -1143l-229 -537h252l193 447l528 1233h-254l-363 -848l-362 848h-254zM356 1354l193 192v2h330l-193 -194h-330z" />
<glyph unicode="&#xfe;" d="M-2 -446v2048h233v-369h375h160l463 -465v-303l-463 -465h-154h-381v-446h-233zM231 231h285h152l329 330v111l-329 329h-158h-279v-770z" />
<glyph unicode="&#xff;" d="M0 1231h254l362 -848l363 848h254l-528 -1233l-193 -447h-252l229 537zM236 1354v268h266v-268h-266zM741 1354v268h267v-268h-267z" />
<glyph unicode="&#x152;" d="M0 473v591l472 472h288l104 -103l103 103h265v-233h-170l-336 -336v-283l506 196v-249l-410 -159l240 -239h170v-233h-266l-103 103l-103 -103h-287zM232 569l337 -337h95v1l35 34l-206 206v590l206 206l-35 35h-95l-337 -336v-399z" />
<glyph unicode="&#x153;" d="M0 0v1234h384l231 -231l231 231h387v-233h-291l-211 -211v-234l502 194v-249l-403 -156l112 -113h291v-232h-387l-231 231l-231 -231h-384zM232 232h55l212 212v346l-212 211h-55v-768v-1z" />
<glyph unicode="&#x178;" d="M0 933v603h232v-445l384 -150l384 150v445h233v-603l-500 -196v-737h-233v737zM233 1657v268h267v-268h-267zM739 1657v268h267v-268h-267z" />
<glyph unicode="&#x2c6;" d="M336 1354l282 282h179l280 -282h-327l-43 43l-43 -43h-328z" />
<glyph unicode="&#x2dc;" d="M263 1425l111 363l510 -158l43 142l223 -70l-43 -141l-70 -222l-508 158l-2 -2l-43 -139z" />
<glyph unicode="&#x2000;" horiz-adv-x="1050" />
<glyph unicode="&#x2001;" horiz-adv-x="2101" />
<glyph unicode="&#x2002;" horiz-adv-x="1050" />
<glyph unicode="&#x2003;" horiz-adv-x="2101" />
<glyph unicode="&#x2004;" horiz-adv-x="700" />
<glyph unicode="&#x2005;" horiz-adv-x="525" />
<glyph unicode="&#x2006;" horiz-adv-x="350" />
<glyph unicode="&#x2007;" horiz-adv-x="350" />
<glyph unicode="&#x2008;" horiz-adv-x="262" />
<glyph unicode="&#x2009;" horiz-adv-x="420" />
<glyph unicode="&#x200a;" horiz-adv-x="116" />
<glyph unicode="&#x2010;" d="M295 492v233h823v-233h-823z" />
<glyph unicode="&#x2011;" d="M295 492v233h823v-233h-823z" />
<glyph unicode="&#x2012;" d="M295 492v233h823v-233h-823z" />
<glyph unicode="&#x2013;" d="M138 494v233h1133v-233h-1133z" />
<glyph unicode="&#x2014;" d="M82 487v234h1249v-234h-1249z" />
<glyph unicode="&#x2018;" d="M489 1159v268l107 107h328l-168 -168v-207h-267z" />
<glyph unicode="&#x2019;" d="M387 1161l168 168v207h266v-268l-106 -107h-328z" />
<glyph unicode="&#x201a;" d="M387 -109l168 168v207h266v-268l-106 -107h-328z" />
<glyph unicode="&#x201c;" d="M254 1159v268l106 107h328l-168 -168v-207h-266zM725 1159v268l106 107h328l-168 -168v-207h-266z" />
<glyph unicode="&#x201d;" d="M152 1161l167 168v207h267v-268l-107 -107h-327zM623 1161l168 168v207h266v-268l-107 -107h-327z" />
<glyph unicode="&#x201e;" d="M152 -106l167 167v207h267v-268l-107 -106h-327zM623 -106l168 167v207h266v-268l-107 -106h-327z" />
<glyph unicode="&#x2022;" d="M630 614v154h153v-154h-153z" />
<glyph unicode="&#x2026;" d="M-1 0v268h266v-268h-266zM486 0v268h267v-268h-267zM972 0v268h266v-268h-266z" />
<glyph unicode="&#x202f;" horiz-adv-x="420" />
<glyph unicode="&#x2039;" d="M443 394v119l527 244v-257l-101 -46l101 -47v-256z" />
<glyph unicode="&#x203a;" d="M443 151v256l101 47l-101 46v257l527 -244v-119z" />
<glyph unicode="&#x205f;" horiz-adv-x="525" />
<glyph unicode="&#x20ac;" d="M61 465v232h187v138h-187v233h190l469 468h432v-232h-336l-236 -236h428v-233h-528v-138h528v-232h-424l233 -233h335v-232h-432l-465 465h-194z" />
<glyph unicode="&#x2122;" d="M0 1190v120l592 229v-119l-240 -93v-527h-112v483zM642 800v736h112l184 -183l183 183h112v-736h-112v579l-183 -184l-184 184v-579h-112z" />
<glyph unicode="&#x25fc;" horiz-adv-x="1228" d="M0 0v1229h1229v-1229h-1229z" />
</font>
</defs>
</svg>
