<?xml version="1.0" standalone="no"?>
<!DOCTYPE svg PUBLIC "-//W3C//DTD SVG 1.1//EN" "http://www.w3.org/Graphics/SVG/1.1/DTD/svg11.dtd" >
<svg xmlns="http://www.w3.org/2000/svg" xmlns:xlink="http://www.w3.org/1999/xlink" version="1.1">
<metadata></metadata>
<defs>
<font id="swiss_721bold" horiz-adv-x="1525" >
<font-face units-per-em="2048" ascent="1638" descent="-410" />
<missing-glyph horiz-adv-x="747" />
<glyph unicode="&#xfb01;" horiz-adv-x="1490" d="M66 844v260h161v110q0 147 88 206t279 59h231v-265h-143q-66 0 -89.5 -16t-23.5 -70v-24h256v-260h-256v-844h-342v844h-161zM989 0v1104h342v-1104h-342zM989 1214v265h342v-265h-342z" />
<glyph unicode="&#xfb02;" horiz-adv-x="1490" d="M66 844v260h161v110q0 147 88 206t279 59h231v-265h-143q-66 0 -89.5 -16t-23.5 -70v-24h256v-260h-256v-844h-342v844h-161zM989 0v1479h342v-1479h-342z" />
<glyph horiz-adv-x="0" />
<glyph unicode="&#xd;" horiz-adv-x="747" />
<glyph unicode=" "  horiz-adv-x="747" />
<glyph unicode="&#x09;" horiz-adv-x="747" />
<glyph unicode="&#xa0;" horiz-adv-x="747" />
<glyph unicode="!" horiz-adv-x="735" d="M174 1141v338h385v-338l-65 -688h-252zM180 0v356h375v-356h-375z" />
<glyph unicode="&#x22;" horiz-adv-x="677" d="M80 879v559h192v-559h-192zM406 879v559h192v-559h-192z" />
<glyph unicode="#" horiz-adv-x="1574" d="M45 406l76 200h282l86 242h-299l74 201h297l148 415h221l-146 -415h242l148 415h221l-148 -415h283l-74 -201h-280l-84 -242h290l-71 -200h-291l-148 -416h-221l148 416h-244l-149 -416h-220l146 416h-287zM621 606h251l86 242h-249z" />
<glyph unicode="$" horiz-adv-x="1492" d="M59 496v24h347q0 -8 -1.5 -15t-1.5 -16q0 -229 254 -241v340q-145 23 -251.5 56.5t-176 84.5t-103.5 121t-34 166q0 188 139.5 298.5t407.5 127.5v155h168v-155q264 -4 400 -111.5t136 -304.5v-16h-329q-2 190 -226 198v-311q158 -23 274 -55.5t190.5 -82.5t110.5 -121 t36 -171q0 -223 -149.5 -343t-442.5 -124v-178h-168v178q-580 25 -580 496zM444 1067q0 -113 209 -145v286q-209 -6 -209 -141zM786 248q129 6 190.5 44t61.5 118q0 66 -61.5 98.5t-190.5 52.5v-313z" />
<glyph unicode="%" horiz-adv-x="1884" d="M66 1092q0 186 104 286.5t295 100.5q193 0 297 -100.5t104 -286.5t-104.5 -286.5t-296.5 -100.5q-190 0 -294.5 100.5t-104.5 286.5zM289 -39l1077 1518h233l-1079 -1518h-231zM307 1092q0 -102 42 -155.5t118 -53.5t117 52t41 157q0 104 -41 157.5t-117 53.5t-118 -54.5 t-42 -156.5zM1022 348q0 186 103.5 286.5t293.5 100.5q193 0 297.5 -100t104.5 -287q0 -186 -104.5 -286.5t-297.5 -100.5q-190 0 -293.5 100.5t-103.5 286.5zM1262 348q0 -102 42 -155.5t117 -53.5q76 0 117 52.5t41 156.5t-41 157.5t-117 53.5t-117.5 -54.5t-41.5 -156.5z " />
<glyph unicode="&#x26;" horiz-adv-x="1759" d="M113 410q0 147 95 257.5t292 202.5q-74 59 -112 134t-38 155q0 70 31 128.5t88 101.5t139 67.5t185 24.5q219 0 337.5 -88t118.5 -242q0 -117 -62.5 -199t-191.5 -151l262 -258q41 53 52 119h360q-29 -111 -73 -199t-105 -154l311 -309h-459l-96 102q-98 -68 -230 -104.5 t-294 -36.5q-135 0 -248 36t-192.5 96.5t-124.5 142t-45 174.5zM500 444q0 -84 73.5 -141t200.5 -57q139 0 260 73l-327 336q-104 -47 -155.5 -102t-51.5 -109zM696 1145q0 -59 92 -139q139 51 140 135q0 43 -29 67.5t-82 24.5q-55 0 -88 -25.5t-33 -62.5z" />
<glyph unicode="'" horiz-adv-x="352" d="M80 879v559h192v-559h-192z" />
<glyph unicode="(" horiz-adv-x="901" d="M168 530q0 199 82 436.5t254 512.5h336q-154 -229 -229.5 -462t-75.5 -487t75.5 -486t229.5 -462h-336q-172 274 -254 512t-82 436z" />
<glyph unicode=")" horiz-adv-x="901" d="M59 -418q154 229 231 461.5t77 486.5t-77 486.5t-231 462.5h338q172 -274 254 -512t82 -437t-82 -436t-254 -512h-338z" />
<glyph unicode="*" horiz-adv-x="1138" d="M127 1120l66 199l272 -88v287h209v-287l272 88l64 -199l-273 -88l170 -231l-170 -123l-168 231l-170 -231l-168 123l168 231z" />
<glyph unicode="+" horiz-adv-x="1705" d="M254 512v199h498v510h202v-510h498v-199h-498v-512h-202v512h-498z" />
<glyph unicode="," horiz-adv-x="747" d="M162 -301q66 84 102.5 153.5t36.5 141.5v6h-123v356h383v-241q0 -59 -8 -112.5t-25.5 -103t-47 -98.5t-72.5 -102h-246z" />
<glyph unicode="-" horiz-adv-x="995" d="M141 391v322h713v-322h-713z" />
<glyph unicode="." horiz-adv-x="747" d="M180 0v356h385v-356h-385z" />
<glyph unicode="/" horiz-adv-x="663" d="M-31 -190l588 1708h203l-588 -1708h-203z" />
<glyph unicode="0" horiz-adv-x="1492" d="M80 721q0 367 174 562.5t489 195.5q319 0 494.5 -194.5t175.5 -563.5t-174 -564.5t-496 -195.5q-315 0 -489 196.5t-174 563.5zM440 721q0 -229 80 -347t228 -118q147 0 226 118t79 347t-79 347t-226 118t-227.5 -118t-80.5 -347z" />
<glyph unicode="1" horiz-adv-x="1492" d="M254 958v242h33q178 0 274 55.5t125 186.5h307v-1442h-348v958h-391z" />
<glyph unicode="2" horiz-adv-x="1492" d="M111 0v43q0 154 42 270.5t138 216.5q43 47 163.5 113t317.5 168q51 27 94 49.5t73 46t46 51t16 66.5q0 160 -243 160q-268 0 -275 -250h-368q4 260 170 403.5t471 143.5t465.5 -119t160.5 -328q0 -141 -85 -241.5t-261 -194.5q-104 -55 -188 -96t-144.5 -75t-95.5 -62.5 t-43 -57.5h789v-307h-1243z" />
<glyph unicode="3" horiz-adv-x="1492" d="M66 487v23h368v-10q0 -125 75 -184.5t232 -59.5q285 0 285 186q0 100 -80 136t-256 36h-46t-48 -2v271q18 0 36.5 -1t35.5 -1q168 0 244.5 34.5t76.5 126.5q0 78 -65.5 122t-194.5 44q-135 0 -201.5 -53t-66.5 -170v-6h-365q6 238 173 369t479 131q293 0 447.5 -107.5 t154.5 -294.5q0 -106 -49.5 -180t-153.5 -125q252 -90 252 -346q0 -102 -46 -188t-135.5 -147.5t-218.5 -95.5t-294 -34q-311 0 -475 139.5t-164 386.5z" />
<glyph unicode="4" horiz-adv-x="1492" d="M74 303v326l727 813h399v-867h232v-272h-232v-303h-346v303h-780zM403 575h451l16 564z" />
<glyph unicode="5" horiz-adv-x="1492" d="M80 432h383q31 -174 250 -174q135 0 208.5 64.5t73.5 171.5q0 109 -72.5 172t-203.5 63q-82 0 -145.5 -32.5t-104.5 -92.5h-354l159 838h1004v-301h-743l-43 -219q152 94 325 94q125 0 225.5 -36t171 -100.5t108.5 -155.5t38 -202q0 -131 -44 -235.5t-127 -176 t-202 -110.5t-270 -39q-287 0 -452 125t-185 346z" />
<glyph unicode="6" horiz-adv-x="1492" d="M88 709q0 381 181.5 575.5t531.5 194.5q129 0 233.5 -32t178 -90.5t114.5 -138t45 -178.5h-368q-16 152 -228 152q-150 0 -228.5 -82t-78.5 -242v-22q143 111 367 110q279 0 433 -129t154 -352q0 -240 -169 -377t-488 -137q-332 0 -505 189.5t-173 558.5zM485 469 q0 -102 70 -159.5t199 -57.5q147 0 225 56.5t78 154.5q0 104 -76 162.5t-217 58.5q-131 0 -205 -59.5t-74 -155.5z" />
<glyph unicode="7" horiz-adv-x="1492" d="M102 1143v299h1287v-271q-260 -211 -423 -502.5t-237 -668.5h-420q72 330 230.5 609.5t410.5 533.5h-848z" />
<glyph unicode="8" horiz-adv-x="1492" d="M78 434q0 123 55 206t178 146q-98 41 -143 110t-45 175q0 186 160.5 298t461.5 112q150 0 266.5 -30t196.5 -83t121 -129t41 -168q0 -106 -45 -175t-143 -110q123 -63 178 -146t55 -206q0 -109 -44 -195.5t-129 -148t-210 -95.5t-287 -34t-285.5 34t-208.5 95.5 t-129 148.5t-44 195zM444 440q0 -176 301 -176t302 176q0 86 -77 133.5t-225 47.5q-147 0 -224 -47.5t-77 -133.5zM479 1030q0 -74 67.5 -113.5t198.5 -39.5q133 0 200 39.5t67 113.5q0 156 -267 156q-266 0 -266 -156z" />
<glyph unicode="9" horiz-adv-x="1492" d="M72 967q0 238 170 375t489 137q332 0 504 -188.5t172 -557.5q0 -381 -181.5 -576.5t-531.5 -195.5q-129 0 -233.5 32t-178 90t-114.5 138t-43 178h369q18 -150 225 -149q150 0 228.5 82t78.5 241v23q-147 -113 -367 -113q-139 0 -248.5 34t-184 96.5t-114.5 152.5 t-40 201zM440 977q0 -104 76 -162.5t217 -58.5q131 0 205 60.5t74 156.5q0 102 -70 159.5t-199 57.5q-147 0 -225 -57.5t-78 -155.5z" />
<glyph unicode=":" horiz-adv-x="735" d="M176 0v356h383v-356h-383zM176 750v354h383v-354h-383z" />
<glyph unicode=";" horiz-adv-x="735" d="M160 -301q66 84 101.5 153.5t35.5 141.5v6h-123v356h385v-241q0 -59 -8 -112.5t-26.5 -103t-48.5 -98.5t-73 -102h-243zM174 750v354h385v-354h-385z" />
<glyph unicode="&#x3c;" horiz-adv-x="1705" d="M264 512v199l1178 483v-219l-893 -365l893 -364v-219z" />
<glyph unicode="=" horiz-adv-x="1705" d="M254 297v199h1198v-199h-1198zM254 727v199h1198v-199h-1198z" />
<glyph unicode="&#x3e;" horiz-adv-x="1705" d="M264 27v219l895 364l-895 365v219l1178 -483v-199z" />
<glyph unicode="?" horiz-adv-x="1343" d="M57 940v16q0 281 162 421.5t483 140.5q276 0 426 -118t150 -319q0 -74 -18.5 -129t-55.5 -102t-89 -89t-120 -87q-37 -27 -68.5 -48.5t-55 -46t-36 -53t-12.5 -69.5v-4h-370v24q0 109 42 178.5t126 137.5q45 35 103 67.5t116 79.5q55 45 55 123q0 76 -53.5 118t-153.5 42 q-131 0 -199.5 -66.5t-68.5 -191.5v-25h-363zM449 0v356h374v-356h-374z" />
<glyph unicode="@" horiz-adv-x="2048" d="M90 520q0 168 52.5 318.5t154.5 275.5q147 180 354 273.5t465 93.5q174 0 321.5 -46t254.5 -128q268 -207 268 -543q0 -166 -65.5 -305.5t-188.5 -237.5q-143 -115 -324 -115q-213 0 -215 166q-55 -86 -126.5 -124.5t-170.5 -38.5q-160 0 -241.5 87t-81.5 253 q0 121 38 224t103.5 178t153.5 118t188 43q160 0 236 -131l53 98h178l-147 -598q-6 -25 -7 -41q0 -70 95 -70q37 0 79 18.5t82 57.5q174 162 175 422q0 117 -47.5 217t-134.5 174t-209.5 116t-272.5 42q-285 0 -483 -135q-170 -115 -261.5 -285t-91.5 -375 q0 -154 54.5 -278.5t154 -211.5t239.5 -135.5t312 -48.5q164 0 317.5 49.5t286.5 141.5l82 -117q-309 -231 -682 -231q-197 0 -356.5 49t-282.5 143q-309 240 -309 637zM760 444q0 -188 158 -188q80 0 149.5 60.5t95.5 166.5l54 217q-25 166 -175 166q-55 0 -106 -32.5 t-90 -90t-62.5 -134.5t-23.5 -165z" />
<glyph unicode="A" horiz-adv-x="1587" d="M-72 0l701 1479h356l674 -1479h-412l-135 313h-651l-133 -313h-400zM588 612h391l-199 457z" />
<glyph unicode="B" horiz-adv-x="1753" d="M166 0v1479h956q498 0 498 -369q0 -219 -201 -324q258 -84 258 -364q0 -193 -125 -307.5t-356 -114.5h-1030zM537 303h493q66 0 114 5t80.5 21.5t48 46.5t15.5 81q0 94 -62.5 132t-195.5 38h-493v-324zM537 887h438q131 0 194.5 28.5t63.5 122.5q0 86 -62.5 113 t-195.5 27l-438 -2v-289z" />
<glyph unicode="C" horiz-adv-x="1906" d="M86 739q0 176 61.5 319.5t177 246t279.5 158t369 55.5q182 0 332.5 -43t259 -120t174 -183.5t80.5 -231.5h-404q-76 274 -442 274q-223 0 -351 -125.5t-128 -349.5q0 -223 128 -348t351 -125q197 0 312.5 81t133.5 226h406q-14 -137 -81 -249.5t-177.5 -193.5t-261 -125 t-332.5 -44q-205 0 -369 55.5t-279.5 157.5t-177 245.5t-61.5 319.5z" />
<glyph unicode="D" horiz-adv-x="1832" d="M166 0v1479h668q170 0 310 -14.5t263 -82.5q164 -90 253 -254.5t89 -388.5q0 -223 -89 -388t-253 -255q-123 -68 -263 -82t-310 -14h-668zM555 303h287q258 0 388 113.5t130 328.5q0 430 -518 431h-287v-873z" />
<glyph unicode="E" horiz-adv-x="1554" d="M166 0v1479h1313v-303h-942v-246h839v-303h-839v-324h942v-303h-1313z" />
<glyph unicode="F" horiz-adv-x="1478" d="M166 0v1479h1261v-303h-890v-281h815v-303h-815v-592h-371z" />
<glyph unicode="G" horiz-adv-x="1957" d="M86 739q0 176 61.5 319.5t177 246t279.5 158t369 55.5q176 0 321.5 -41t254 -115t174 -175.5t81.5 -219.5h-403q-100 247 -425 247h-3q-223 0 -351 -125.5t-128 -349.5q0 -223 128 -348t351 -125q156 0 269.5 64.5t164.5 175.5h-336v303h729v-809h-280l-21 166 q-211 -205 -547 -205q-180 0 -330.5 49t-259.5 135q-141 111 -208.5 257.5t-67.5 336.5z" />
<glyph unicode="H" horiz-adv-x="1781" d="M166 0v1479h371v-559h710v559h369v-1479h-369v616h-710v-616h-371z" />
<glyph unicode="I" horiz-adv-x="710" d="M170 0v1479h371v-1479h-371z" />
<glyph unicode="J" horiz-adv-x="1359" d="M70 512v96h352v-67q0 -276 205 -277q68 0 108.5 21.5t64 64.5t32 107.5t8.5 150.5v871h368v-844q0 -139 -9 -243.5t-60 -188.5q-72 -117 -198 -179.5t-302 -62.5q-295 0 -432 134t-137 417z" />
<glyph unicode="K" horiz-adv-x="1650" d="M166 0v1479h371v-568l622 568h477l-651 -574l731 -905h-454l-537 678l-188 -166v-512h-371z" />
<glyph unicode="L" horiz-adv-x="1357" d="M166 0v1479h371v-1176h761v-303h-1132z" />
<glyph unicode="M" horiz-adv-x="2252" d="M166 0v1479h479l477 -1059l490 1059h475v-1479h-356v987l-459 -987h-309l-441 1004v-1004h-356z" />
<glyph unicode="N" horiz-adv-x="1882" d="M166 0v1479h455l739 -1043v1043h356v-1479h-450l-746 1053v-1053h-354z" />
<glyph unicode="O" horiz-adv-x="1945" d="M86 739q0 176 61.5 319.5t177 246t279.5 158t369 55.5t368.5 -55.5t278.5 -158t176.5 -246t61.5 -319.5t-61.5 -319.5t-176.5 -245.5t-278.5 -157.5t-368.5 -55.5t-369 55.5t-279.5 157.5t-177 245.5t-61.5 319.5zM494 739q0 -223 128 -349t351 -126t350 126t127 349 q0 111 -33 199t-95 149.5t-150.5 94t-198.5 32.5q-223 0 -351 -125.5t-128 -349.5z" />
<glyph unicode="P" horiz-adv-x="1644" d="M166 0v1479h876q260 0 403.5 -134.5t143.5 -369.5q0 -117 -36.5 -212t-106.5 -160.5t-172.5 -101.5t-231.5 -36h-505v-465h-371zM537 768h340q172 0 254.5 40t82.5 161q0 63 -18 103t-56 63.5t-97.5 32t-141.5 8.5h-364v-408z" />
<glyph unicode="Q" horiz-adv-x="1945" d="M86 739q0 176 61.5 319.5t177 246t279.5 158t369 55.5t368.5 -55.5t278.5 -158t176.5 -246t61.5 -319.5q0 -334 -197 -520l133 -145l-223 -209l-164 180q-188 -84 -434 -84q-205 0 -369 55.5t-279.5 157.5t-177 245.5t-61.5 319.5zM494 739q0 -225 131 -350t364 -125 q53 0 99.5 8.5t87.5 30.5l-123 137l225 209l127 -139q27 47 37 104.5t10 124.5q0 109 -34 197t-95 149.5t-150.5 95t-199.5 33.5q-223 0 -351 -125.5t-128 -349.5z" />
<glyph unicode="R" horiz-adv-x="1753" d="M166 0v1479h909q291 0 433.5 -93.5t142.5 -304.5q0 -131 -64.5 -230t-181.5 -144q59 -25 94 -53.5t54.5 -65.5t25.5 -85t10 -112q6 -135 16.5 -232.5t63.5 -158.5h-416q-31 49 -30 115v100q0 94 -9.5 157.5t-37 101.5t-78.5 54.5t-133 16.5h-428v-545h-371zM537 848h419 q150 0 225.5 36t75.5 138q0 53 -19 84t-59 46t-99.5 19.5t-139.5 4.5h-403v-328z" />
<glyph unicode="S" horiz-adv-x="1759" d="M104 481v31h379v-14q0 -123 107.5 -189.5t322.5 -66.5q166 0 252 48t86 134q0 43 -17 69.5t-53 44t-91.5 27.5t-128.5 19l-263 26q-285 29 -422 128.5t-137 287.5q0 104 48.5 194.5t140.5 156t224 103.5t300 38q178 0 315.5 -35t230.5 -97.5t142 -151.5t49 -198v-12h-368 q-25 221 -363 221q-160 0 -244 -46t-84 -124q0 -41 17.5 -66.5t54.5 -41t93.5 -23.5t133.5 -16l275 -29q281 -31 416 -134t135 -300q0 -246 -196.5 -375t-590.5 -129q-377 0 -570.5 136t-193.5 384z" />
<glyph unicode="T" horiz-adv-x="1359" d="M-10 1176v303h1380v-303h-506v-1176h-368v1176h-506z" />
<glyph unicode="U" horiz-adv-x="1847" d="M166 645v834h369v-795q0 -217 90 -318.5t297 -101.5q111 0 189.5 33t127.5 92q51 61 61.5 132t10.5 163v795h368v-834q0 -338 -191.5 -511t-565.5 -173q-375 0 -565.5 173t-190.5 511z" />
<glyph unicode="V" horiz-adv-x="1507" d="M-82 1479h408l426 -1061l432 1061h405l-651 -1479h-377z" />
<glyph unicode="W" horiz-adv-x="2351" d="M-33 1479h385l295 -996l348 996h365l336 -996l303 996h385l-479 -1479h-377l-354 1077l-371 -1077h-365z" />
<glyph unicode="X" horiz-adv-x="1480" d="M-86 0l610 750l-581 729h467l340 -463l340 463h456l-583 -725l604 -754h-477l-345 475l-366 -475h-465z" />
<glyph unicode="Y" horiz-adv-x="1456" d="M-109 1479h471l369 -529l365 529h469l-658 -848v-631h-370v631z" />
<glyph unicode="Z" horiz-adv-x="1607" d="M57 0v319l959 857h-918v303h1452v-308l-972 -868h981v-303h-1502z" />
<glyph unicode="[" horiz-adv-x="901" d="M199 -418v1897h649v-285h-303v-1327h303v-285h-649z" />
<glyph unicode="\" horiz-adv-x="663" d="M-96 1518h205l587 -1708h-204z" />
<glyph unicode="]" horiz-adv-x="901" d="M51 -133h305v1327h-305v285h651v-1897h-651v285z" />
<glyph unicode="^" horiz-adv-x="2048" d="M416 899l481 561h252l481 -561h-235l-371 371l-373 -371h-235z" />
<glyph unicode="_" horiz-adv-x="1024" d="M0 -279h1024v-204h-1024v204z" />
<glyph unicode="`" horiz-adv-x="1024" d="M117 1571h434l151 -318h-260z" />
<glyph unicode="a" d="M92 328q0 86 33 144t97.5 97t162.5 61.5t229 33.5q106 8 188.5 13t137.5 17.5t83 36t28 68.5q0 125 -254 125q-127 0 -187.5 -43t-62.5 -142h-357v4q0 193 158 296.5t469 103.5q301 0 459 -117q72 -53 90 -131t18 -190v-527q0 -57 10.5 -94t41.5 -59v-25h-377l-17 121 q-92 -86 -204.5 -123t-255.5 -37q-236 0 -363 100.5t-127 266.5zM477 336q0 -63 49 -102t136 -39q88 0 160.5 22.5t123.5 62t79 94t28 120.5v19t-2 19q-53 -29 -123 -38t-156 -19q-74 -8 -129 -16t-92 -22.5t-55.5 -38t-18.5 -62.5z" />
<glyph unicode="b" horiz-adv-x="1568" d="M145 0v1479h340v-504q63 70 158.5 106.5t226.5 36.5q141 0 257 -42t199 -117.5t129 -182t46 -235.5q0 -127 -45 -233.5t-128 -183.5t-197.5 -119t-253.5 -42q-129 0 -224.5 34t-167.5 105v-102h-340zM485 539q0 -143 88.5 -229.5t235.5 -86.5t235.5 84t88.5 230 q0 147 -87.5 231t-236.5 84q-147 0 -235.5 -85t-88.5 -228z" />
<glyph unicode="c" horiz-adv-x="1474" d="M66 553q0 135 47 243.5t137 185.5t220 119t294 42q287 0 447.5 -120t189.5 -343h-377q-14 96 -86 147.5t-195 51.5q-139 0 -223 -88.5t-84 -239.5q0 -150 83 -238t224 -88q119 0 197 62.5t86 161.5h387q-8 -106 -60.5 -196.5t-139.5 -155t-207.5 -100.5t-266.5 -36 q-152 0 -276.5 42t-212.5 120t-136 186.5t-48 243.5z" />
<glyph unicode="d" horiz-adv-x="1568" d="M68 541q0 129 46 235.5t129 182t198.5 117.5t256.5 42q131 0 225.5 -37t159.5 -106v504h342v-1479h-342v102q-72 -72 -167 -105.5t-224 -33.5q-139 0 -253.5 42t-197.5 119t-128 183.5t-45 233.5zM436 537q0 -145 88 -229.5t236 -84.5q147 0 235 86.5t88 229.5t-88 228 t-235 85q-150 0 -237 -84t-87 -231z" />
<glyph unicode="e" horiz-adv-x="1460" d="M66 553q0 135 45 243.5t131 185.5t208.5 119t278.5 42q322 0 493 -164t171 -469v-47h-942q4 -123 79.5 -193.5t198.5 -70.5q98 0 168 42t100 117h377q-68 -188 -233.5 -292.5t-411.5 -104.5q-154 0 -276.5 42t-208.5 119t-132 186.5t-46 244.5zM461 692h553 q-10 102 -83 161.5t-194 59.5t-193.5 -59t-82.5 -162z" />
<glyph unicode="f" horiz-adv-x="862" d="M66 844v260h161v110q0 147 88 206t279 59h231v-265h-143q-66 0 -89.5 -16t-23.5 -70v-24h256v-260h-256v-844h-342v844h-161z" />
<glyph unicode="g" horiz-adv-x="1568" d="M68 590q0 119 45 219t128 172t197.5 113t255.5 41q127 0 222.5 -31t166.5 -100v100h342v-907q0 -66 -2 -123.5t-14 -108.5t-36.5 -97t-69.5 -89q-98 -90 -233.5 -129t-319.5 -39q-588 0 -588 364v19h342q0 -139 248 -139q92 0 154.5 12t102.5 42t57 78t17 119v74 q-72 -70 -166 -101.5t-217 -31.5q-141 0 -257.5 39t-199.5 110.5t-129 172t-46 221.5zM436 590q0 -135 87 -215t237 -80t236.5 80t86.5 215t-87 215t-236 80q-150 0 -237 -80t-87 -215z" />
<glyph unicode="h" horiz-adv-x="1517" d="M139 0v1479h342v-541q177 192 427 192h3q143 0 246 -44t160 -130q47 -70 56 -153.5t9 -194.5v-608h-342v535q0 82 -10 143t-36.5 101t-73 59.5t-119.5 19.5q-147 0 -233.5 -83t-86.5 -230v-545h-342z" />
<glyph unicode="i" horiz-adv-x="663" d="M162 0v1104h340v-1104h-340zM162 1214v265h340v-265h-340z" />
<glyph unicode="j" horiz-adv-x="663" d="M-61 -102h61q86 0 124 33.5t38 113.5v1059h340v-1065q0 -98 -10.5 -175t-67.5 -140t-133 -88t-185 -25h-167v287zM162 1214v265h340v-265h-340z" />
<glyph unicode="k" horiz-adv-x="1456" d="M162 0v1479h340v-791l491 416h441l-545 -451l590 -653h-455l-387 442l-135 -106v-336h-340z" />
<glyph unicode="l" horiz-adv-x="663" d="M162 0v1479h340v-1479h-340z" />
<glyph unicode="m" horiz-adv-x="2408" d="M139 0v1104h342v-166q182 195 430 195q164 0 276.5 -61.5t158.5 -168.5q86 113 203.5 171.5t252.5 58.5q141 0 245.5 -46.5t160.5 -130.5q47 -70 56 -153.5t9 -194.5v-608h-342v535q0 82 -10 143t-36.5 101t-73 59.5t-119.5 19.5q-147 0 -233.5 -83t-86.5 -230v-545h-332 v535q0 82 -10 143t-36.5 101t-73 59.5t-119.5 19.5q-147 0 -233.5 -83t-86.5 -230v-545h-342z" />
<glyph unicode="n" horiz-adv-x="1517" d="M139 0v1104h342v-166q182 195 430 195q141 0 246 -46.5t160 -130.5q47 -70 56 -153.5t9 -194.5v-608h-342v535q0 82 -10 143t-36.5 101t-73 59.5t-119.5 19.5q-147 0 -233.5 -83t-86.5 -230v-545h-342z" />
<glyph unicode="o" d="M66 553q0 135 47 243.5t137 185.5t220 119t294 42t294 -42t219 -119t136 -185.5t47 -243.5t-48 -244.5t-137 -186.5t-219 -119t-292 -42q-164 0 -293 42t-219 119t-138 186.5t-48 244.5zM436 551q0 -147 89 -233.5t239 -86.5t238 87.5t88 234.5t-88.5 233t-237.5 86 q-150 0 -239 -87t-89 -234z" />
<glyph unicode="p" horiz-adv-x="1568" d="M145 -389v1493h340v-111q66 68 161 104t231 36q139 0 253.5 -42t197.5 -119t128 -183.5t45 -235.5q0 -131 -46 -237.5t-129 -183.5t-198.5 -119t-257.5 -42q-244 0 -385 144v-504h-340zM485 551q0 -143 88.5 -228t235.5 -85q150 0 237 84t87 231q0 145 -88.5 229 t-235.5 84t-235.5 -86t-88.5 -229z" />
<glyph unicode="q" horiz-adv-x="1568" d="M68 553q0 129 45 235.5t128 183.5t197.5 119t253.5 42q129 0 224.5 -34t166.5 -106v111h342v-1493h-342v504q-141 -143 -385 -144q-141 0 -256.5 42t-198.5 119t-129 183.5t-46 237.5zM436 553q0 -147 87 -231t237 -84q147 0 235 85t88 228t-88 229t-235 86t-235.5 -84 t-88.5 -229z" />
<glyph unicode="r" horiz-adv-x="909" d="M139 0v1104h342v-146q154 184 334 185q18 0 42 -2t54 -6v-291q-25 4 -52.5 4h-55.5q-150 0 -236 -93t-86 -261v-494h-342z" />
<glyph unicode="s" horiz-adv-x="1456" d="M98 362h361q8 -86 82.5 -121.5t226.5 -35.5q115 0 175.5 31.5t60.5 76.5q0 51 -46.5 66.5t-144.5 23.5l-309 27q-174 16 -272.5 107.5t-98.5 230.5q0 180 151.5 277.5t448.5 97.5q287 0 439.5 -96.5t152.5 -262.5v-10h-342q-25 143 -268 144q-111 0 -166 -28t-55 -73 q0 -47 62 -70.5t194 -33.5l239 -19q180 -14 274.5 -99t94.5 -230q0 -197 -154.5 -300.5t-464.5 -103.5q-618 0 -641 401z" />
<glyph unicode="t" horiz-adv-x="862" d="M66 844v260h161v291h342v-291h256v-260h-256v-467q0 -49 2 -78t12.5 -45t33 -21.5t65.5 -5.5h143v-266h-231q-190 0 -278.5 59.5t-88.5 206.5v617h-161z" />
<glyph unicode="u" horiz-adv-x="1517" d="M139 496v608h342v-535q0 -84 10.5 -144t37 -99t72.5 -58.5t120 -19.5q147 0 233 82t86 229v545h342v-1104h-342v166q-178 -193 -430 -193q-143 0 -245.5 44t-159.5 130q-47 70 -56.5 154t-9.5 195z" />
<glyph unicode="v" horiz-adv-x="1298" d="M-39 1104h375l301 -721l330 721h370l-538 -1104h-322z" />
<glyph unicode="w" horiz-adv-x="1986" d="M-20 1104h366l250 -764l227 764h340l228 -764l247 764h369l-444 -1104h-340l-230 739l-231 -739h-338z" />
<glyph unicode="x" horiz-adv-x="1290" d="M-53 0l487 563l-434 541h428l215 -295l225 295h443l-469 -551l501 -553h-454l-252 309l-242 -309h-448z" />
<glyph unicode="y" horiz-adv-x="1298" d="M-35 1104h381l295 -711l320 711h376l-618 -1266q-74 -152 -174 -200q-37 -18 -81 -22.5t-95 -4.5h-238v303h197q129 0 129 100q0 41 -13 70z" />
<glyph unicode="z" horiz-adv-x="1308" d="M68 0v266l692 574h-643v264h1102v-264l-701 -574h723v-266h-1173z" />
<glyph unicode="{" horiz-adv-x="1024" d="M158 426v209q10 0 20 -1t21 -1q123 0 173 59.5t50 194.5v250q0 109 16.5 180.5t87.5 112.5q51 29 120 39t161 10q18 0 36.5 -1t39.5 -1v-209q-12 0 -24.5 1t-22.5 1q-55 0 -89 -10.5t-52.5 -34t-24.5 -62.5t-6 -94v-240q0 -68 -8.5 -117.5t-32 -84.5t-63.5 -58.5 t-103 -38.5q63 -14 103 -36.5t63.5 -58.5t32 -85t8.5 -117v-241q0 -55 6 -94t24.5 -61.5t52 -33t89.5 -10.5q10 0 22 1t25 1v-209q-20 0 -39 -1t-37 -1q-92 0 -160.5 10.5t-120.5 38.5q-72 41 -88 112t-16 179v252q0 135 -50 193.5t-173 58.5q-10 0 -20.5 -1t-20.5 -1z" />
<glyph unicode="|" horiz-adv-x="1024" d="M410 -483v2048h206v-2048h-206z" />
<glyph unicode="}" horiz-adv-x="1024" d="M143 -205q12 0 24.5 -1t22.5 -1q55 0 89 10.5t52.5 33t24.5 61.5t6 94v239q0 68 8.5 118t31 85t62.5 58.5t105 37.5q-63 14 -103 38t-63.5 59t-32 85t-8.5 117v242q0 55 -6 94t-24.5 61.5t-52 33t-89.5 10.5q-10 0 -22 -1t-25 -1v209h68q96 0 167 -10.5t122 -39.5 q70 -41 87 -111.5t17 -178.5v-252q0 -135 50.5 -193.5t172.5 -58.5q10 0 20.5 1t20.5 1v-209h-37q-127 0 -177 -56.5t-50 -193.5v-252q0 -109 -16.5 -180.5t-87.5 -110.5q-51 -29 -120 -39t-161 -10q-18 0 -36.5 1t-39.5 1v209z" />
<glyph unicode="~" horiz-adv-x="1705" d="M178 418v221q213 143 387 143q90 0 160 -18.5t135 -40.5q74 -25 145.5 -49.5t149.5 -24.5q92 0 181 39t194 115v-221q-100 -68 -192.5 -103t-186.5 -35q-92 0 -184 31q-106 35 -202.5 67.5t-201.5 32.5q-92 0 -184 -39.5t-201 -117.5z" />
<glyph unicode="&#xa1;" horiz-adv-x="735" d="M174 0v338l68 688h252l65 -688v-338h-385zM180 1124v355h375v-355h-375z" />
<glyph unicode="&#xa2;" horiz-adv-x="1492" d="M66 588q0 125 40.5 228.5t119.5 179t191.5 121.5t256.5 57v192h170v-190q246 -12 389 -133t168 -328h-377q-29 174 -209 192v-641q195 41 211 217h387q-8 -96 -50 -179t-115.5 -145.5t-175 -102.5t-228.5 -52v-215h-170v211q-291 25 -449.5 179.5t-158.5 408.5zM436 588 q0 -135 67.5 -221t190.5 -103v647q-123 -20 -190.5 -104t-67.5 -219z" />
<glyph unicode="&#xa3;" horiz-adv-x="1492" d="M92 268q219 141 219 285q0 10 -1 20.5t-3 20.5h-178v248h127q-53 102 -53 202q0 201 150.5 318t437.5 117t441 -132.5t163 -385.5h-363q-10 233 -229 233q-106 0 -167 -52t-61 -143q0 -66 41 -157h357v-248h-307q-6 -154 -127 -262q82 18 139 18q43 0 89 -8t94 -19.5 t99.5 -19.5t104.5 -8q76 0 140.5 22.5t133.5 65.5l88 -336q-82 -43 -163.5 -64.5t-171.5 -21.5q-80 0 -157 13.5t-149.5 28.5t-139 28.5t-128.5 13.5q-135 0 -262 -84z" />
<glyph unicode="&#xa4;" horiz-adv-x="1241" d="M68 438l202 205q-76 106 -75 242q0 135 75 241l-202 205l104 107l205 -203q51 37 110.5 57.5t133.5 20.5q139 0 247 -78l203 203l105 -107l-203 -205q76 -106 76 -241q0 -133 -76 -242l203 -205l-105 -104l-203 203q-51 -37 -111.5 -57.5t-133.5 -20.5q-141 0 -246 78 l-205 -203zM346 885q0 -57 21.5 -107.5t59.5 -87.5t88 -58.5t108 -21.5q57 0 107 21.5t88 58.5t59.5 87t21.5 108q0 55 -21.5 105t-59.5 88t-88 60.5t-107 22.5t-107.5 -22.5t-88.5 -60.5t-59.5 -88t-21.5 -105z" />
<glyph unicode="&#xa5;" horiz-adv-x="1492" d="M-57 1442h448l365 -531l366 531h418l-350 -461h246v-123h-346l-105 -137h451v-123h-535v-598h-328v598h-528v123h449l-107 137h-342v123h250z" />
<glyph unicode="&#xa6;" horiz-adv-x="1024" d="M410 -350v758h206v-758h-206zM410 674v758h206v-758h-206z" />
<glyph unicode="&#xa7;" horiz-adv-x="1636" d="M55 629q0 117 60.5 203t173.5 129q-70 88 -70 204q0 168 150.5 260.5t449.5 92.5q287 0 434.5 -109t153.5 -317h-334v10q0 170 -293 170q-92 0 -140 -29t-48 -78q0 -41 26.5 -64.5t86.5 -35.5l479 -98q203 -41 300 -133.5t97 -249.5q0 -209 -205 -293q104 -80 105 -225 q0 -88 -44 -162t-130 -126t-212 -82t-290 -30q-311 0 -484.5 119t-195.5 330h385q0 -180 346 -181q106 0 161.5 31t55.5 76q0 47 -55 71.5t-174 49.5l-348 71q-225 47 -333 139.5t-108 256.5zM389 684q0 -104 131 -137l451 -105q61 -14 107 -27.5t75 -23.5q98 53 98 144 q0 70 -42 99.5t-128 47.5l-467 102q-41 8 -141 37q-84 -59 -84 -137z" />
<glyph unicode="&#xa8;" horiz-adv-x="1024" d="M82 1280v264h328v-264h-328zM616 1280v264h328v-264h-328z" />
<glyph unicode="&#xa9;" horiz-adv-x="1705" d="M111 733q0 147 55 282.5t164 246.5q104 106 236 161.5t286 55.5t288 -55.5t242 -163.5q104 -104 159.5 -239.5t55.5 -287.5q0 -154 -55 -285t-160 -235q-111 -109 -247 -166t-283 -57t-280.5 56t-241.5 165q-106 106 -162.5 240.5t-56.5 281.5zM233 735 q0 -125 46.5 -236.5t136.5 -201.5t202.5 -136t235.5 -46t236.5 46t205.5 138q88 86 133.5 196.5t45.5 239.5q0 127 -46.5 238.5t-134.5 200.5q-182 182 -440 182q-129 0 -239.5 -45t-198.5 -135q-90 -92 -136.5 -205t-46.5 -236zM453 729q0 104 28.5 187t81.5 141.5 t128 90.5t165 32q76 0 140.5 -20.5t110.5 -57.5t73.5 -89t31.5 -116h-188q-8 72 -53 109.5t-119 37.5q-88 0 -141.5 -78.5t-53.5 -230.5q0 -147 52.5 -224t150.5 -77q72 0 116 42t54 120h193q-4 -70 -32 -126t-76 -96t-114.5 -62.5t-146.5 -22.5q-186 0 -293.5 116.5 t-107.5 323.5z" />
<glyph unicode="&#xaa;" horiz-adv-x="1144" d="M70 936q0 59 24.5 101t72.5 69t121.5 42t172.5 23q80 6 141.5 9.5t102 11.5t62 25.5t21.5 48.5q0 88 -190 88q-96 0 -141 -31t-47 -98h-267v2q0 135 119 207.5t350 72.5q227 0 344 -82q53 -39 67.5 -93t14.5 -132v-369q0 -41 8.5 -66.5t30.5 -41.5v-16h-282l-13 84 q-70 -59 -153.5 -85t-192.5 -26q-176 0 -271 69.5t-95 186.5zM358 942q0 -45 37 -72.5t101 -27.5q135 0 215 59.5t80 151.5q0 6 -0.5 13t-2.5 13q-41 -20 -92 -26t-116 -15q-111 -10 -166.5 -26.5t-55.5 -69.5z" />
<glyph unicode="&#xab;" horiz-adv-x="1275" d="M137 430v244l438 352v-326l-198 -147l198 -150v-325zM696 430v244l439 352v-326l-199 -147l199 -150v-325z" />
<glyph unicode="&#xac;" horiz-adv-x="1705" d="M254 668v196h1198v-502h-199v306h-999z" />
<glyph unicode="&#xad;" horiz-adv-x="995" d="M141 391v322h713v-322h-713z" />
<glyph unicode="&#xae;" horiz-adv-x="1705" d="M111 733q0 203 108 387q100 170 265 264.5t368 94.5q154 0 290 -56.5t244 -167.5q104 -104 157.5 -238t53.5 -284q0 -154 -56 -288t-163 -238q-111 -106 -246 -161.5t-280 -55.5q-150 0 -285 57t-243 168q-104 106 -158.5 239.5t-54.5 278.5zM233 735q0 -123 45.5 -234.5 t133.5 -199.5q90 -92 203.5 -140t236.5 -48t235.5 47t204.5 135q88 86 135.5 196.5t47.5 231.5q0 266 -177 446q-182 187 -444 187q-256 0 -432 -176q-92 -92 -140.5 -207t-48.5 -238zM545 336v825h323q352 0 353 -237q0 -82 -47.5 -139.5t-133.5 -79.5l185 -369h-224 l-157 338h-99v-338h-200zM745 795h99q86 0 128 27.5t42 88.5q0 66 -44 94.5t-136 28.5h-89v-239z" />
<glyph unicode="&#xaf;" horiz-adv-x="1024" d="M51 1305v213h920v-213h-920z" />
<glyph unicode="&#xb0;" horiz-adv-x="673" d="M35 1159q0 63 23.5 118.5t64.5 97.5t96.5 65.5t118.5 23.5t118.5 -24.5t96.5 -65.5t64.5 -96t23.5 -119q0 -61 -23.5 -116.5t-65.5 -97.5t-97.5 -65.5t-118.5 -23.5t-117.5 23.5t-95.5 64.5t-64.5 96.5t-23.5 118.5zM162 1161q0 -74 51 -125t125 -51q37 0 68.5 14.5 t55 39t37 56t13.5 66.5q0 72 -51 123t-123 51q-37 0 -68.5 -13t-55.5 -36.5t-38 -55.5t-14 -69z" />
<glyph unicode="&#xb1;" horiz-adv-x="1705" d="M254 -2v199h1198v-199h-1198zM254 698v199h498v326h202v-326h498v-199h-498v-325h-202v325h-498z" />
<glyph unicode="&#xb2;" horiz-adv-x="985" d="M74 575v27q0 92 27.5 162t91.5 129q29 29 108.5 68.5t208.5 101.5q70 33 111 56.5t41 70.5q0 96 -162 96q-176 0 -181 -149h-243q4 154 113.5 240.5t310.5 86.5t307 -71.5t106 -196.5q0 -86 -56 -145.5t-173 -116.5q-139 -66 -220 -102.5t-91 -71.5h520v-185h-819z" />
<glyph unicode="&#xb3;" horiz-adv-x="985" d="M43 868v13h244v-7q0 -145 202 -145q188 0 189 113q0 59 -53.5 80.5t-169.5 21.5h-29.5t-32.5 -2v164q12 0 24.5 -1t22.5 -1q111 0 162 20.5t51 75.5q0 47 -43 73.5t-129 26.5q-176 0 -176 -133v-4h-242q4 141 115 220t316 79q193 0 295 -64.5t102 -174.5q0 -66 -33 -110 t-100 -75q166 -55 166 -207q0 -125 -120 -201.5t-339 -76.5q-205 0 -313.5 83t-108.5 232z" />
<glyph unicode="&#xb4;" horiz-adv-x="1024" d="M322 1253l151 318h434l-325 -318h-260z" />
<glyph unicode="&#xb5;" horiz-adv-x="1249" d="M-63 -438l268 1530h289l-76 -435q-18 -102 -24.5 -169.5t-6.5 -98.5q0 -184 170 -184q53 0 92 22.5t69 68.5t50 115.5t37 166.5l90 514h289l-193 -1092h-268l18 117q-41 -78 -92 -114t-123 -36q-131 0 -213 121l-90 -526h-286z" />
<glyph unicode="&#xb6;" horiz-adv-x="1024" d="M41 1130q0 76 26.5 140.5t78 110.5t124 72t162.5 26h551v-111h-113v-1368h-151v1368h-160v-1368h-151v784q-86 2 -154 30t-115 73t-72.5 107.5t-25.5 135.5z" />
<glyph unicode="&#xb7;" horiz-adv-x="747" d="M150 721q0 47 17 88t47 70.5t71 47t88 17.5t88 -17.5t70.5 -47t47 -70.5t17.5 -88t-17.5 -88t-47 -71t-70.5 -47t-88 -17t-88 17t-71 47t-47 71t-17 88z" />
<glyph unicode="&#xb8;" horiz-adv-x="1024" d="M215 -408l35 93q63 -16 119.5 -26.5t107.5 -10.5q49 0 73.5 19.5t24.5 53.5q0 27 -21.5 45.5t-55.5 18.5q-25 0 -70 -12l-63 39l98 188h133l-74 -123q29 6 52.5 8t39.5 2q80 0 127 -45t47 -121q0 -98 -65.5 -142t-200.5 -44q-66 0 -141.5 14.5t-165.5 42.5z" />
<glyph unicode="&#xb9;" horiz-adv-x="985" d="M168 1151v145h20q117 0 180.5 33t84.5 111h202v-865h-229v576h-258z" />
<glyph unicode="&#xba;" horiz-adv-x="1144" d="M49 1094q0 94 36 170.5t103.5 130t165 83t219.5 29.5q248 0 385.5 -111.5t137.5 -301.5q0 -193 -138.5 -303.5t-384.5 -110.5t-385 110.5t-139 303.5zM328 1092q0 -102 66.5 -163t178.5 -61q113 0 178.5 60.5t65.5 165.5q0 102 -65.5 162.5t-178.5 60.5t-179 -60.5 t-66 -164.5z" />
<glyph unicode="&#xbb;" horiz-adv-x="1275" d="M141 78v325l197 150l-197 147v326l439 -352v-244zM700 78v325l197 150l-197 147v326l439 -352v-244z" />
<glyph unicode="&#xbc;" horiz-adv-x="2322" d="M160 1169v136h20q111 0 172.5 31.5t79.5 103.5h193v-807h-219v536h-246zM504 -39l1079 1518h234l-1080 -1518h-233zM1427 170v182l457 455h252v-485h145v-152h-145v-170h-217v170h-492zM1634 322h285l10 315z" />
<glyph unicode="&#xbd;" horiz-adv-x="2322" d="M160 1169v136h20q111 0 172.5 31.5t79.5 103.5h193v-807h-219v536h-246zM504 -39l1079 1518h234l-1080 -1518h-233zM1450 0v25q0 86 26.5 151.5t86.5 120.5q29 27 104.5 63.5t200.5 94.5q66 29 104.5 52t38.5 66q0 90 -153 91q-170 0 -172 -142h-234q4 145 107.5 226 t295.5 81q193 0 294.5 -66.5t101.5 -182.5q0 -80 -53.5 -135.5t-163.5 -108.5q-133 -63 -210 -97t-87 -67h495v-172h-782z" />
<glyph unicode="&#xbe;" horiz-adv-x="2322" d="M41 905v13h233v-5q0 -137 193 -137q180 0 180 105q0 55 -51 75.5t-162 20.5h-28.5t-30.5 -2v151h45q106 0 154.5 18.5t48.5 72.5q0 43 -41 67.5t-123 24.5q-168 0 -168 -125v-2h-230q4 133 108.5 205.5t301.5 72.5q184 0 281.5 -59.5t97.5 -163.5q0 -115 -127 -172 q158 -51 158 -195q0 -117 -114 -188.5t-323 -71.5q-199 0 -301 78t-102 217zM504 -39l1079 1518h234l-1080 -1518h-233zM1427 170v182l457 455h252v-485h145v-152h-145v-170h-217v170h-492zM1634 322h285l10 315z" />
<glyph unicode="&#xbf;" horiz-adv-x="1343" d="M70 397q0 74 18 129.5t55 102.5t89.5 88t119.5 88q37 27 69 48t54.5 46t34.5 53.5t12 69.5v4h373v-22q0 -111 -42 -180.5t-128 -137.5q-45 -35 -103.5 -67.5t-115.5 -79.5q-55 -45 -55 -123q0 -76 54 -118t154 -42q131 0 200 66.5t69 191.5v25h360v-17q0 -561 -643 -561 q-276 0 -425.5 118t-149.5 318zM522 1124v355h375v-355h-375z" />
<glyph unicode="&#xc0;" horiz-adv-x="1587" d="M-72 0l701 1479h356l674 -1479h-412l-135 313h-651l-133 -313h-400zM410 1946h434l151 -318h-260zM588 612h391l-199 457z" />
<glyph unicode="&#xc1;" horiz-adv-x="1587" d="M-72 0l701 1479h356l674 -1479h-412l-135 313h-651l-133 -313h-400zM588 612h391l-199 457zM615 1628l151 318h434l-325 -318h-260z" />
<glyph unicode="&#xc2;" horiz-adv-x="1587" d="M-72 0l701 1479h356l674 -1479h-412l-135 313h-651l-133 -313h-400zM303 1628l312 318h380l312 -318h-355l-147 152l-147 -152h-355zM588 612h391l-199 457z" />
<glyph unicode="&#xc3;" horiz-adv-x="1587" d="M-72 0l701 1479h356l674 -1479h-412l-135 313h-651l-133 -313h-400zM356 1639v26q0 125 74 200t185 75q51 0 96 -11.5t85 -26t74.5 -25.5t63.5 -11q76 0 82 70h238v-27q0 -61 -19.5 -112.5t-54.5 -88.5t-82 -56.5t-103 -19.5q-51 0 -96 11.5t-85 26t-74.5 25.5t-63.5 11 q-76 0 -82 -67h-238zM588 612h391l-199 457z" />
<glyph unicode="&#xc4;" horiz-adv-x="1587" d="M-72 0l701 1479h356l674 -1479h-412l-135 313h-651l-133 -313h-400zM375 1655v264h328v-264h-328zM588 612h391l-199 457zM909 1655v264h328v-264h-328z" />
<glyph unicode="&#xc5;" horiz-adv-x="1587" d="M-72 0l701 1479h356l674 -1479h-412l-135 313h-651l-133 -313h-400zM506 1753q0 96 75.5 152.5t213.5 56.5q137 0 211.5 -56.5t74.5 -152.5q0 -98 -73.5 -153.5t-212.5 -55.5q-137 0 -213 56.5t-76 152.5zM588 612h391l-199 457zM696 1755q0 -41 26 -65.5t71 -24.5 t71.5 24.5t26.5 65.5t-25.5 64.5t-72.5 23.5q-45 0 -71 -23.5t-26 -64.5z" />
<glyph unicode="&#xc6;" horiz-adv-x="2459" d="M-63 0l788 1479h1659v-303h-942v-246h842v-303h-842v-324h942v-303h-1303v311h-569l-162 -311h-413zM678 614h403v562h-102z" />
<glyph unicode="&#xc7;" horiz-adv-x="1906" d="M86 739q0 176 61.5 319.5t177 246t279.5 158t369 55.5q182 0 332.5 -43t259 -120t174 -183.5t80.5 -231.5h-404q-76 274 -442 274q-223 0 -351 -125.5t-128 -349.5q0 -223 128 -348t351 -125q197 0 312.5 81t133.5 226h406q-14 -137 -81 -249.5t-177.5 -193.5t-261 -125 t-332.5 -44q-205 0 -369 55.5t-279.5 157.5t-177 245.5t-61.5 319.5zM657 -408l35 93q63 -16 119.5 -26.5t107.5 -10.5q49 0 73.5 19.5t24.5 53.5q0 27 -21.5 45.5t-55.5 18.5q-25 0 -70 -12l-63 39l98 188h133l-74 -123q29 6 52.5 8t39.5 2q80 0 127 -45t47 -121 q0 -98 -65.5 -142t-200.5 -44q-66 0 -141.5 14.5t-165.5 42.5z" />
<glyph unicode="&#xc8;" horiz-adv-x="1554" d="M166 0v1479h1313v-303h-942v-246h839v-303h-839v-324h942v-303h-1313zM426 1946h434l151 -318h-260z" />
<glyph unicode="&#xc9;" horiz-adv-x="1554" d="M166 0v1479h1313v-303h-942v-246h839v-303h-839v-324h942v-303h-1313zM631 1628l151 318h434l-325 -318h-260z" />
<glyph unicode="&#xca;" horiz-adv-x="1554" d="M166 0v1479h1313v-303h-942v-246h839v-303h-839v-324h942v-303h-1313zM319 1628l312 318h380l312 -318h-355l-147 152l-147 -152h-355z" />
<glyph unicode="&#xcb;" horiz-adv-x="1554" d="M166 0v1479h1313v-303h-942v-246h839v-303h-839v-324h942v-303h-1313zM391 1655v264h328v-264h-328zM925 1655v264h328v-264h-328z" />
<glyph unicode="&#xcc;" horiz-adv-x="710" d="M-37 1946h434l151 -318h-260zM170 0v1479h371v-1479h-371z" />
<glyph unicode="&#xcd;" horiz-adv-x="710" d="M168 1628l151 318h434l-325 -318h-260zM170 0v1479h371v-1479h-371z" />
<glyph unicode="&#xce;" horiz-adv-x="710" d="M-144 1628l312 318h380l312 -318h-355l-147 152l-147 -152h-355zM170 0v1479h371v-1479h-371z" />
<glyph unicode="&#xcf;" horiz-adv-x="710" d="M-72 1655v264h328v-264h-328zM170 0v1479h371v-1479h-371zM462 1655v264h328v-264h-328z" />
<glyph unicode="&#xd0;" horiz-adv-x="1843" d="M0 674v188h176v617h668q170 0 310 -14.5t263 -82.5q164 -90 252 -254.5t88 -388.5q0 -223 -88 -388t-252 -255q-123 -68 -263 -82t-310 -14h-668v674h-176zM545 307h307q258 0 388 111.5t130 326.5t-130 326t-388 111h-307v-320h403v-188h-403v-367z" />
<glyph unicode="&#xd1;" horiz-adv-x="1882" d="M166 0v1479h455l739 -1043v1043h356v-1479h-450l-746 1053v-1053h-354zM493 1639v26q0 125 74 200t185 75q51 0 96 -11.5t85 -26t74.5 -25.5t63.5 -11q76 0 82 70h238v-27q0 -61 -19.5 -112.5t-54.5 -88.5t-82 -56.5t-103 -19.5q-51 0 -96 11.5t-85 26t-74.5 25.5 t-63.5 11q-76 0 -82 -67h-238z" />
<glyph unicode="&#xd2;" horiz-adv-x="1945" d="M86 739q0 176 61.5 319.5t177 246t279.5 158t369 55.5t368.5 -55.5t278.5 -158t176.5 -246t61.5 -319.5t-61.5 -319.5t-176.5 -245.5t-278.5 -157.5t-368.5 -55.5t-369 55.5t-279.5 157.5t-177 245.5t-61.5 319.5zM494 739q0 -223 128 -349t351 -126t350 126t127 349 q0 111 -33 199t-95 149.5t-150.5 94t-198.5 32.5q-223 0 -351 -125.5t-128 -349.5zM578 1946h434l151 -318h-260z" />
<glyph unicode="&#xd3;" horiz-adv-x="1945" d="M86 739q0 176 61.5 319.5t177 246t279.5 158t369 55.5t368.5 -55.5t278.5 -158t176.5 -246t61.5 -319.5t-61.5 -319.5t-176.5 -245.5t-278.5 -157.5t-368.5 -55.5t-369 55.5t-279.5 157.5t-177 245.5t-61.5 319.5zM494 739q0 -223 128 -349t351 -126t350 126t127 349 q0 111 -33 199t-95 149.5t-150.5 94t-198.5 32.5q-223 0 -351 -125.5t-128 -349.5zM783 1628l151 318h434l-325 -318h-260z" />
<glyph unicode="&#xd4;" horiz-adv-x="1945" d="M86 739q0 176 61.5 319.5t177 246t279.5 158t369 55.5t368.5 -55.5t278.5 -158t176.5 -246t61.5 -319.5t-61.5 -319.5t-176.5 -245.5t-278.5 -157.5t-368.5 -55.5t-369 55.5t-279.5 157.5t-177 245.5t-61.5 319.5zM471 1628l312 318h380l312 -318h-355l-147 152 l-147 -152h-355zM494 739q0 -223 128 -349t351 -126t350 126t127 349q0 111 -33 199t-95 149.5t-150.5 94t-198.5 32.5q-223 0 -351 -125.5t-128 -349.5z" />
<glyph unicode="&#xd5;" horiz-adv-x="1945" d="M86 739q0 176 61.5 319.5t177 246t279.5 158t369 55.5t368.5 -55.5t278.5 -158t176.5 -246t61.5 -319.5t-61.5 -319.5t-176.5 -245.5t-278.5 -157.5t-368.5 -55.5t-369 55.5t-279.5 157.5t-177 245.5t-61.5 319.5zM494 739q0 -223 128 -349t351 -126t350 126t127 349 q0 111 -33 199t-95 149.5t-150.5 94t-198.5 32.5q-223 0 -351 -125.5t-128 -349.5zM524 1639v26q0 125 74 200t185 75q51 0 96 -11.5t85 -26t74.5 -25.5t63.5 -11q76 0 82 70h238v-27q0 -61 -19.5 -112.5t-54.5 -88.5t-82 -56.5t-103 -19.5q-51 0 -96 11.5t-85 26 t-74.5 25.5t-63.5 11q-76 0 -82 -67h-238z" />
<glyph unicode="&#xd6;" horiz-adv-x="1945" d="M86 739q0 176 61.5 319.5t177 246t279.5 158t369 55.5t368.5 -55.5t278.5 -158t176.5 -246t61.5 -319.5t-61.5 -319.5t-176.5 -245.5t-278.5 -157.5t-368.5 -55.5t-369 55.5t-279.5 157.5t-177 245.5t-61.5 319.5zM494 739q0 -223 128 -349t351 -126t350 126t127 349 q0 111 -33 199t-95 149.5t-150.5 94t-198.5 32.5q-223 0 -351 -125.5t-128 -349.5zM543 1655v264h328v-264h-328zM1077 1655v264h328v-264h-328z" />
<glyph unicode="&#xd7;" horiz-adv-x="1705" d="M276 160l451 450l-451 453l140 139l450 -450l451 450l141 -139l-450 -453l450 -450l-141 -140l-451 451l-450 -451z" />
<glyph unicode="&#xd8;" horiz-adv-x="1945" d="M86 739q0 176 61.5 319.5t177 246t279.5 158t369 55.5q168 0 306 -37t243 -105l192 176l129 -137l-174 -162q92 -98 140.5 -226t48.5 -288q0 -176 -61.5 -319.5t-176.5 -245.5t-278.5 -157.5t-368.5 -55.5q-172 0 -311.5 38t-237.5 103l-205 -190l-121 141l178 168 q-190 209 -190 518zM494 739q0 -78 13 -142.5t46 -117.5l711 654q-63 41 -134 61t-157 20q-223 0 -351 -125.5t-128 -349.5zM684 344q53 -37 127 -57.5t162 -20.5q221 0 349 125t128 348q0 84 -15.5 148.5t-43.5 109.5z" />
<glyph unicode="&#xd9;" horiz-adv-x="1847" d="M166 645v834h369v-795q0 -217 90 -318.5t297 -101.5q111 0 189.5 33t127.5 92q51 61 61.5 132t10.5 163v795h368v-834q0 -338 -191.5 -511t-565.5 -173q-375 0 -565.5 173t-190.5 511zM529 1946h434l151 -318h-260z" />
<glyph unicode="&#xda;" horiz-adv-x="1847" d="M166 645v834h369v-795q0 -217 90 -318.5t297 -101.5q111 0 189.5 33t127.5 92q51 61 61.5 132t10.5 163v795h368v-834q0 -338 -191.5 -511t-565.5 -173q-375 0 -565.5 173t-190.5 511zM734 1628l151 318h434l-325 -318h-260z" />
<glyph unicode="&#xdb;" horiz-adv-x="1847" d="M166 645v834h369v-795q0 -217 90 -318.5t297 -101.5q111 0 189.5 33t127.5 92q51 61 61.5 132t10.5 163v795h368v-834q0 -338 -191.5 -511t-565.5 -173q-375 0 -565.5 173t-190.5 511zM422 1628l312 318h380l312 -318h-355l-147 152l-147 -152h-355z" />
<glyph unicode="&#xdc;" horiz-adv-x="1847" d="M166 645v834h369v-795q0 -217 90 -318.5t297 -101.5q111 0 189.5 33t127.5 92q51 61 61.5 132t10.5 163v795h368v-834q0 -338 -191.5 -511t-565.5 -173q-375 0 -565.5 173t-190.5 511zM494 1655v264h328v-264h-328zM1028 1655v264h328v-264h-328z" />
<glyph unicode="&#xdd;" horiz-adv-x="1456" d="M-109 1479h471l369 -529l365 529h469l-658 -848v-631h-370v631zM539 1628l151 318h434l-325 -318h-260z" />
<glyph unicode="&#xde;" horiz-adv-x="1644" d="M166 0v1479h371v-222h505q260 0 403.5 -134t143.5 -369q0 -236 -142 -370t-405 -134h-505v-250h-371zM537 539h340q172 0 254.5 43t82.5 163q0 63 -18 104.5t-56 64t-97.5 31.5t-141.5 9h-364v-415z" />
<glyph unicode="&#xdf;" horiz-adv-x="1503" d="M137 0v907q0 152 33 260.5t104.5 177t185 101.5t273.5 33q279 0 425.5 -107.5t146.5 -300.5q0 -86 -42 -151.5t-133 -118.5q238 -94 238 -344q0 -229 -150.5 -347t-449.5 -118q-37 0 -77 2t-87 6v248h82q326 0 326 205q0 117 -76 155.5t-229 38.5h-86v248h73 q129 0 191.5 34t62.5 122q0 74 -55 117.5t-154 43.5q-141 0 -200.5 -75.5t-59.5 -241.5v-895h-342z" />
<glyph unicode="&#xe0;" d="M92 328q0 86 33 144t97.5 97t162.5 61.5t229 33.5q106 8 188.5 13t137.5 17.5t83 36t28 68.5q0 125 -254 125q-127 0 -187.5 -43t-62.5 -142h-357v4q0 193 158 296.5t469 103.5q301 0 459 -117q72 -53 90 -131t18 -190v-527q0 -57 10.5 -94t41.5 -59v-25h-377l-17 121 q-92 -86 -204.5 -123t-255.5 -37q-236 0 -363 100.5t-127 266.5zM430 1571h434l151 -318h-260zM477 336q0 -63 49 -102t136 -39q88 0 160.5 22.5t123.5 62t79 94t28 120.5v19t-2 19q-53 -29 -123 -38t-156 -19q-74 -8 -129 -16t-92 -22.5t-55.5 -38t-18.5 -62.5z" />
<glyph unicode="&#xe1;" d="M92 328q0 86 33 144t97.5 97t162.5 61.5t229 33.5q106 8 188.5 13t137.5 17.5t83 36t28 68.5q0 125 -254 125q-127 0 -187.5 -43t-62.5 -142h-357v4q0 193 158 296.5t469 103.5q301 0 459 -117q72 -53 90 -131t18 -190v-527q0 -57 10.5 -94t41.5 -59v-25h-377l-17 121 q-92 -86 -204.5 -123t-255.5 -37q-236 0 -363 100.5t-127 266.5zM477 336q0 -63 49 -102t136 -39q88 0 160.5 22.5t123.5 62t79 94t28 120.5v19t-2 19q-53 -29 -123 -38t-156 -19q-74 -8 -129 -16t-92 -22.5t-55.5 -38t-18.5 -62.5zM635 1253l151 318h434l-325 -318h-260z " />
<glyph unicode="&#xe2;" d="M92 328q0 86 33 144t97.5 97t162.5 61.5t229 33.5q106 8 188.5 13t137.5 17.5t83 36t28 68.5q0 125 -254 125q-127 0 -187.5 -43t-62.5 -142h-357v4q0 193 158 296.5t469 103.5q301 0 459 -117q72 -53 90 -131t18 -190v-527q0 -57 10.5 -94t41.5 -59v-25h-377l-17 121 q-92 -86 -204.5 -123t-255.5 -37q-236 0 -363 100.5t-127 266.5zM323 1253l312 318h380l312 -318h-355l-147 152l-147 -152h-355zM477 336q0 -63 49 -102t136 -39q88 0 160.5 22.5t123.5 62t79 94t28 120.5v19t-2 19q-53 -29 -123 -38t-156 -19q-74 -8 -129 -16t-92 -22.5 t-55.5 -38t-18.5 -62.5z" />
<glyph unicode="&#xe3;" d="M92 328q0 86 33 144t97.5 97t162.5 61.5t229 33.5q106 8 188.5 13t137.5 17.5t83 36t28 68.5q0 125 -254 125q-127 0 -187.5 -43t-62.5 -142h-357v4q0 193 158 296.5t469 103.5q301 0 459 -117q72 -53 90 -131t18 -190v-527q0 -57 10.5 -94t41.5 -59v-25h-377l-17 121 q-92 -86 -204.5 -123t-255.5 -37q-236 0 -363 100.5t-127 266.5zM376 1264v26q0 125 74 200t185 75q51 0 96 -11.5t85 -26t74.5 -25.5t63.5 -11q76 0 82 70h238v-27q0 -61 -19.5 -112.5t-54.5 -88.5t-82 -56.5t-103 -19.5q-51 0 -96 11.5t-85 26t-74.5 25.5t-63.5 11 q-76 0 -82 -67h-238zM477 336q0 -63 49 -102t136 -39q88 0 160.5 22.5t123.5 62t79 94t28 120.5v19t-2 19q-53 -29 -123 -38t-156 -19q-74 -8 -129 -16t-92 -22.5t-55.5 -38t-18.5 -62.5z" />
<glyph unicode="&#xe4;" d="M92 328q0 86 33 144t97.5 97t162.5 61.5t229 33.5q106 8 188.5 13t137.5 17.5t83 36t28 68.5q0 125 -254 125q-127 0 -187.5 -43t-62.5 -142h-357v4q0 193 158 296.5t469 103.5q301 0 459 -117q72 -53 90 -131t18 -190v-527q0 -57 10.5 -94t41.5 -59v-25h-377l-17 121 q-92 -86 -204.5 -123t-255.5 -37q-236 0 -363 100.5t-127 266.5zM395 1280v264h328v-264h-328zM477 336q0 -63 49 -102t136 -39q88 0 160.5 22.5t123.5 62t79 94t28 120.5v19t-2 19q-53 -29 -123 -38t-156 -19q-74 -8 -129 -16t-92 -22.5t-55.5 -38t-18.5 -62.5zM929 1280 v264h328v-264h-328z" />
<glyph unicode="&#xe5;" d="M92 328q0 86 33 144t97.5 97t162.5 61.5t229 33.5q106 8 188.5 13t137.5 17.5t83 36t28 68.5q0 125 -254 125q-127 0 -187.5 -43t-62.5 -142h-357v4q0 193 158 296.5t469 103.5q301 0 459 -117q72 -53 90 -131t18 -190v-527q0 -57 10.5 -94t41.5 -59v-25h-377l-17 121 q-92 -86 -204.5 -123t-255.5 -37q-236 0 -363 100.5t-127 266.5zM477 336q0 -63 49 -102t136 -39q88 0 160.5 22.5t123.5 62t79 94t28 120.5v19t-2 19q-53 -29 -123 -38t-156 -19q-74 -8 -129 -16t-92 -22.5t-55.5 -38t-18.5 -62.5zM530 1419q0 96 75 152.5t212 56.5 t213 -56t76 -153q0 -98 -75 -153.5t-214 -55.5q-137 0 -212 56.5t-75 152.5zM719 1419q0 -41 26.5 -65.5t71.5 -24.5t71.5 24.5t26.5 65.5t-25.5 65.5t-72.5 24.5q-45 0 -71.5 -24.5t-26.5 -65.5z" />
<glyph unicode="&#xe6;" horiz-adv-x="2394" d="M92 328q0 86 33 144t97.5 97t162.5 61.5t229 33.5q106 8 188.5 13t137.5 16.5t83 35t28 68.5q0 127 -254 127q-129 0 -188.5 -43t-61.5 -142h-357v11q0 184 158 288.5t451 104.5q303 0 454 -103q74 47 175.5 75t234.5 28q324 0 494 -161t170 -466v-41h-943 q0 -123 77 -194.5t202 -71.5q98 0 169 41t101 115h375q-68 -193 -233.5 -298.5t-411.5 -105.5q-344 0 -526 213q-96 -111 -229.5 -162t-317.5 -51q-242 0 -370 100.5t-128 266.5zM477 328q0 -63 49 -103.5t136 -40.5q88 0 159.5 22.5t122.5 62.5t80 95.5t29 120.5v19.5 t-2 19.5q-53 -29 -122 -38t-157 -19q-74 -8 -129 -16.5t-92 -22.5t-55.5 -37.5t-18.5 -62.5zM1395 698h553q-10 100 -83 158.5t-194 58.5t-193.5 -58t-82.5 -159z" />
<glyph unicode="&#xe7;" horiz-adv-x="1474" d="M66 553q0 135 47 243.5t137 185.5t220 119t294 42q287 0 447.5 -120t189.5 -343h-377q-14 96 -86 147.5t-195 51.5q-139 0 -223 -88.5t-84 -239.5q0 -150 83 -238t224 -88q119 0 197 62.5t86 161.5h387q-8 -106 -60.5 -196.5t-139.5 -155t-207.5 -100.5t-266.5 -36 q-152 0 -276.5 42t-212.5 120t-136 186.5t-48 243.5zM440 -408l35 93q63 -16 119.5 -26.5t107.5 -10.5q49 0 73.5 19.5t24.5 53.5q0 27 -21.5 45.5t-55.5 18.5q-25 0 -70 -12l-63 39l98 188h133l-74 -123q29 6 52.5 8t39.5 2q80 0 127 -45t47 -121q0 -98 -65.5 -142 t-200.5 -44q-66 0 -141.5 14.5t-165.5 42.5z" />
<glyph unicode="&#xe8;" horiz-adv-x="1460" d="M66 553q0 135 45 243.5t131 185.5t208.5 119t278.5 42q322 0 493 -164t171 -469v-47h-942q4 -123 79.5 -193.5t198.5 -70.5q98 0 168 42t100 117h377q-68 -188 -233.5 -292.5t-411.5 -104.5q-154 0 -276.5 42t-208.5 119t-132 186.5t-46 244.5zM371 1571h434l151 -318 h-260zM461 692h553q-10 102 -83 161.5t-194 59.5t-193.5 -59t-82.5 -162z" />
<glyph unicode="&#xe9;" horiz-adv-x="1460" d="M66 553q0 135 45 243.5t131 185.5t208.5 119t278.5 42q322 0 493 -164t171 -469v-47h-942q4 -123 79.5 -193.5t198.5 -70.5q98 0 168 42t100 117h377q-68 -188 -233.5 -292.5t-411.5 -104.5q-154 0 -276.5 42t-208.5 119t-132 186.5t-46 244.5zM461 692h553 q-10 102 -83 161.5t-194 59.5t-193.5 -59t-82.5 -162zM576 1253l151 318h434l-325 -318h-260z" />
<glyph unicode="&#xea;" horiz-adv-x="1460" d="M66 553q0 135 45 243.5t131 185.5t208.5 119t278.5 42q322 0 493 -164t171 -469v-47h-942q4 -123 79.5 -193.5t198.5 -70.5q98 0 168 42t100 117h377q-68 -188 -233.5 -292.5t-411.5 -104.5q-154 0 -276.5 42t-208.5 119t-132 186.5t-46 244.5zM264 1253l312 318h380 l312 -318h-355l-147 152l-147 -152h-355zM461 692h553q-10 102 -83 161.5t-194 59.5t-193.5 -59t-82.5 -162z" />
<glyph unicode="&#xeb;" horiz-adv-x="1460" d="M66 553q0 135 45 243.5t131 185.5t208.5 119t278.5 42q322 0 493 -164t171 -469v-47h-942q4 -123 79.5 -193.5t198.5 -70.5q98 0 168 42t100 117h377q-68 -188 -233.5 -292.5t-411.5 -104.5q-154 0 -276.5 42t-208.5 119t-132 186.5t-46 244.5zM336 1280v264h328v-264 h-328zM461 692h553q-10 102 -83 161.5t-194 59.5t-193.5 -59t-82.5 -162zM870 1280v264h328v-264h-328z" />
<glyph unicode="&#xec;" horiz-adv-x="663" d="M-61 1571h434l151 -318h-260zM162 0v1104h340v-1104h-340z" />
<glyph unicode="&#xed;" horiz-adv-x="663" d="M144 1253l151 318h434l-325 -318h-260zM162 0v1104h340v-1104h-340z" />
<glyph unicode="&#xee;" horiz-adv-x="663" d="M-168 1253l312 318h380l312 -318h-355l-147 152l-147 -152h-355zM162 0v1104h340v-1104h-340z" />
<glyph unicode="&#xef;" horiz-adv-x="663" d="M-96 1280v264h328v-264h-328zM162 0v1104h340v-1104h-340zM438 1280v264h328v-264h-328z" />
<glyph unicode="&#xf0;" d="M66 500q0 123 46 221t135 169t217 108.5t292 37.5q37 0 75.5 -2t79.5 -6q-41 61 -74.5 104.5t-60.5 71.5l-379 -143l-39 119l326 125q-12 14 -30.5 33.5t-45.5 43.5l191 166q63 -53 104 -89t62 -56l272 102l51 -116l-227 -89q399 -412 399 -794q0 -125 -47 -225.5 t-136 -171t-218 -108.5t-295 -38q-164 0 -294 38t-220 107.5t-137 169t-47 222.5zM436 506q0 -123 88 -199t240 -76t239 76t87 199q0 125 -87.5 200.5t-238.5 75.5q-152 0 -240 -75.5t-88 -200.5z" />
<glyph unicode="&#xf1;" horiz-adv-x="1517" d="M139 0v1104h342v-166q182 195 430 195q141 0 246 -46.5t160 -130.5q47 -70 56 -153.5t9 -194.5v-608h-342v535q0 82 -10 143t-36.5 101t-73 59.5t-119.5 19.5q-147 0 -233.5 -83t-86.5 -230v-545h-342zM311 1264v26q0 125 74 200t185 75q51 0 96 -11.5t85 -26t74.5 -25.5 t63.5 -11q76 0 82 70h238v-27q0 -61 -19.5 -112.5t-54.5 -88.5t-82 -56.5t-103 -19.5q-51 0 -96 11.5t-85 26t-74.5 25.5t-63.5 11q-76 0 -82 -67h-238z" />
<glyph unicode="&#xf2;" d="M66 553q0 135 47 243.5t137 185.5t220 119t294 42t294 -42t219 -119t136 -185.5t47 -243.5t-48 -244.5t-137 -186.5t-219 -119t-292 -42q-164 0 -293 42t-219 119t-138 186.5t-48 244.5zM369 1571h434l151 -318h-260zM436 551q0 -147 89 -233.5t239 -86.5t238 87.5 t88 234.5t-88.5 233t-237.5 86q-150 0 -239 -87t-89 -234z" />
<glyph unicode="&#xf3;" d="M66 553q0 135 47 243.5t137 185.5t220 119t294 42t294 -42t219 -119t136 -185.5t47 -243.5t-48 -244.5t-137 -186.5t-219 -119t-292 -42q-164 0 -293 42t-219 119t-138 186.5t-48 244.5zM436 551q0 -147 89 -233.5t239 -86.5t238 87.5t88 234.5t-88.5 233t-237.5 86 q-150 0 -239 -87t-89 -234zM574 1253l151 318h434l-325 -318h-260z" />
<glyph unicode="&#xf4;" d="M66 553q0 135 47 243.5t137 185.5t220 119t294 42t294 -42t219 -119t136 -185.5t47 -243.5t-48 -244.5t-137 -186.5t-219 -119t-292 -42q-164 0 -293 42t-219 119t-138 186.5t-48 244.5zM262 1253l312 318h380l312 -318h-355l-147 152l-147 -152h-355zM436 551 q0 -147 89 -233.5t239 -86.5t238 87.5t88 234.5t-88.5 233t-237.5 86q-150 0 -239 -87t-89 -234z" />
<glyph unicode="&#xf5;" d="M66 553q0 135 47 243.5t137 185.5t220 119t294 42t294 -42t219 -119t136 -185.5t47 -243.5t-48 -244.5t-137 -186.5t-219 -119t-292 -42q-164 0 -293 42t-219 119t-138 186.5t-48 244.5zM315 1264v26q0 125 74 200t185 75q51 0 96 -11.5t85 -26t74.5 -25.5t63.5 -11 q76 0 82 70h238v-27q0 -61 -19.5 -112.5t-54.5 -88.5t-82 -56.5t-103 -19.5q-51 0 -96 11.5t-85 26t-74.5 25.5t-63.5 11q-76 0 -82 -67h-238zM436 551q0 -147 89 -233.5t239 -86.5t238 87.5t88 234.5t-88.5 233t-237.5 86q-150 0 -239 -87t-89 -234z" />
<glyph unicode="&#xf6;" d="M66 553q0 135 47 243.5t137 185.5t220 119t294 42t294 -42t219 -119t136 -185.5t47 -243.5t-48 -244.5t-137 -186.5t-219 -119t-292 -42q-164 0 -293 42t-219 119t-138 186.5t-48 244.5zM334 1280v264h328v-264h-328zM436 551q0 -147 89 -233.5t239 -86.5t238 87.5 t88 234.5t-88.5 233t-237.5 86q-150 0 -239 -87t-89 -234zM868 1280v264h328v-264h-328z" />
<glyph unicode="&#xf7;" horiz-adv-x="1705" d="M254 512v199h1198v-199h-1198zM702 217q0 66 45.5 109t106.5 43t106.5 -44t45.5 -108q0 -59 -44 -104t-108 -45q-63 0 -107.5 43t-44.5 106zM702 1004q0 66 45.5 108.5t106.5 42.5t106.5 -44t45.5 -107q0 -61 -43 -106.5t-109 -45.5q-63 0 -107.5 44t-44.5 108z" />
<glyph unicode="&#xf8;" d="M66 553q0 135 47 243.5t137 185.5t220 119t294 42q256 0 430 -101l121 107l106 -115l-100 -94q139 -158 139 -387q0 -135 -48 -244.5t-137 -186.5t-219 -119t-292 -42q-139 0 -242.5 25.5t-167.5 70.5l-155 -145l-105 121l129 121q-158 139 -157 399zM436 551 q0 -92 39 -168l481 438q-88 51 -192 51q-150 0 -239 -87t-89 -234zM590 270q78 -39 174 -39q152 0 240 88.5t88 241.5q0 82 -33 141z" />
<glyph unicode="&#xf9;" horiz-adv-x="1517" d="M139 496v608h342v-535q0 -84 10.5 -144t37 -99t72.5 -58.5t120 -19.5q147 0 233 82t86 229v545h342v-1104h-342v166q-178 -193 -430 -193q-143 0 -245.5 44t-159.5 130q-47 70 -56.5 154t-9.5 195zM365 1571h434l151 -318h-260z" />
<glyph unicode="&#xfa;" horiz-adv-x="1517" d="M139 496v608h342v-535q0 -84 10.5 -144t37 -99t72.5 -58.5t120 -19.5q147 0 233 82t86 229v545h342v-1104h-342v166q-178 -193 -430 -193q-143 0 -245.5 44t-159.5 130q-47 70 -56.5 154t-9.5 195zM570 1253l151 318h434l-325 -318h-260z" />
<glyph unicode="&#xfb;" horiz-adv-x="1517" d="M139 496v608h342v-535q0 -84 10.5 -144t37 -99t72.5 -58.5t120 -19.5q147 0 233 82t86 229v545h342v-1104h-342v166q-178 -193 -430 -193q-143 0 -245.5 44t-159.5 130q-47 70 -56.5 154t-9.5 195zM258 1253l312 318h380l312 -318h-355l-147 152l-147 -152h-355z" />
<glyph unicode="&#xfc;" horiz-adv-x="1517" d="M139 496v608h342v-535q0 -84 10.5 -144t37 -99t72.5 -58.5t120 -19.5q147 0 233 82t86 229v545h342v-1104h-342v166q-178 -193 -430 -193q-143 0 -245.5 44t-159.5 130q-47 70 -56.5 154t-9.5 195zM330 1280v264h328v-264h-328zM864 1280v264h328v-264h-328z" />
<glyph unicode="&#xfd;" horiz-adv-x="1298" d="M-35 1104h381l295 -711l320 711h376l-618 -1266q-74 -152 -174 -200q-37 -18 -81 -22.5t-95 -4.5h-238v303h197q129 0 129 100q0 41 -13 70zM459 1253l151 318h434l-325 -318h-260z" />
<glyph unicode="&#xfe;" horiz-adv-x="1568" d="M145 -389v1868h340v-486q66 68 161 104t231 36q139 0 253.5 -42t197.5 -119t128 -183.5t45 -235.5q0 -131 -46 -237.5t-129 -183.5t-198.5 -119t-257.5 -42q-123 0 -218 35t-167 109v-504h-340zM485 551q0 -143 88.5 -228t235.5 -85q150 0 237 84t87 231q0 145 -88.5 229 t-235.5 84t-235.5 -86t-88.5 -229z" />
<glyph unicode="&#xff;" horiz-adv-x="1298" d="M-35 1104h381l295 -711l320 711h376l-618 -1266q-74 -152 -174 -200q-37 -18 -81 -22.5t-95 -4.5h-238v303h197q129 0 129 100q0 41 -13 70zM219 1280v264h328v-264h-328zM753 1280v264h328v-264h-328z" />
<glyph unicode="&#x152;" horiz-adv-x="2719" d="M86 739q0 178 55.5 321.5t157.5 245t249.5 157t330.5 55.5q297 0 452 -150v111h1313v-303h-944v-246h842v-303h-842v-324h944v-303h-1313v100q-59 -66 -175 -102.5t-279 -36.5q-180 0 -327 54.5t-249 155.5t-158.5 245.5t-56.5 322.5zM494 739q0 -111 33.5 -198.5 t94 -149t145.5 -94.5t189 -33q223 0 375 195v561q-152 195 -375 194q-104 0 -189 -32.5t-145.5 -94t-94 -149.5t-33.5 -199z" />
<glyph unicode="&#x153;" horiz-adv-x="2473" d="M66 553q0 135 47 243.5t137 185.5t220 119t294 42q174 0 300 -41t200 -113q166 154 479 154q322 0 492.5 -164t170.5 -471v-41h-942q0 -123 77 -195.5t202 -72.5q98 0 168.5 42t101.5 117h375q-68 -188 -233.5 -292.5t-411.5 -104.5q-147 0 -265 38t-214 120 q-100 -84 -222 -121t-278 -37q-164 0 -293 42t-219 119t-138 186.5t-48 244.5zM436 551q0 -147 89 -233.5t239 -86.5t238 87.5t88 234.5t-88.5 233t-237.5 86q-150 0 -239 -87t-89 -234zM1477 692h553q-10 102 -83 161.5t-194 59.5t-193.5 -59t-82.5 -162z" />
<glyph unicode="&#x178;" horiz-adv-x="1456" d="M-109 1479h471l369 -529l365 529h469l-658 -848v-631h-370v631zM299 1655v264h328v-264h-328zM833 1655v264h328v-264h-328z" />
<glyph unicode="&#x2c6;" horiz-adv-x="1024" d="M10 1253l312 318h380l312 -318h-355l-147 152l-147 -152h-355z" />
<glyph unicode="&#x2dc;" horiz-adv-x="1024" d="M63 1264v26q0 125 74 200t185 75q51 0 96 -11.5t85 -26t74.5 -25.5t63.5 -11q76 0 82 70h238v-27q0 -61 -19.5 -112.5t-54.5 -88.5t-82 -56.5t-103 -19.5q-51 0 -96 11.5t-85 26t-74.5 25.5t-63.5 11q-76 0 -82 -67h-238z" />
<glyph unicode="&#x2000;" horiz-adv-x="981" />
<glyph unicode="&#x2001;" horiz-adv-x="1962" />
<glyph unicode="&#x2002;" horiz-adv-x="981" />
<glyph unicode="&#x2003;" horiz-adv-x="1962" />
<glyph unicode="&#x2004;" horiz-adv-x="654" />
<glyph unicode="&#x2005;" horiz-adv-x="490" />
<glyph unicode="&#x2006;" horiz-adv-x="327" />
<glyph unicode="&#x2007;" horiz-adv-x="327" />
<glyph unicode="&#x2008;" horiz-adv-x="245" />
<glyph unicode="&#x2009;" horiz-adv-x="392" />
<glyph unicode="&#x200a;" horiz-adv-x="109" />
<glyph unicode="&#x2010;" horiz-adv-x="995" d="M141 391v322h713v-322h-713z" />
<glyph unicode="&#x2011;" horiz-adv-x="995" d="M141 391v322h713v-322h-713z" />
<glyph unicode="&#x2012;" horiz-adv-x="995" d="M141 391v322h713v-322h-713z" />
<glyph unicode="&#x2013;" horiz-adv-x="1024" d="M0 440v224h1024v-224h-1024z" />
<glyph unicode="&#x2014;" horiz-adv-x="2048" d="M0 440v224h2048v-224h-2048z" />
<glyph unicode="&#x2018;" horiz-adv-x="710" d="M168 821v242q0 59 8 112.5t25.5 102.5t47.5 98t73 103h245q-66 -84 -102.5 -154t-36.5 -141v-6h123v-357h-383z" />
<glyph unicode="&#x2019;" horiz-adv-x="710" d="M143 821q66 84 103 155t37 142v6h-123v355h385v-240q0 -59 -8.5 -112.5t-26.5 -103.5t-48 -99.5t-73 -102.5h-246z" />
<glyph unicode="&#x201a;" horiz-adv-x="710" d="M143 -301q66 84 103 153.5t37 141.5v6h-123v356h385v-241q0 -59 -8.5 -112.5t-26.5 -103t-48 -98.5t-73 -102h-246z" />
<glyph unicode="&#x201c;" horiz-adv-x="1239" d="M168 821v242q0 59 8 112.5t25.5 102.5t47.5 98t73 103h245q-66 -84 -102.5 -154t-36.5 -141v-6h123v-357h-383zM696 821v242q0 59 8.5 112.5t27 102.5t48 98t72.5 103h244q-66 -84 -102 -154t-36 -141v-6h121v-357h-383z" />
<glyph unicode="&#x201d;" horiz-adv-x="1239" d="M143 821q66 84 102 155t36 142v6h-121v355h383v-240q0 -59 -8.5 -112.5t-25.5 -103.5t-47 -99.5t-73 -102.5h-246zM672 821q66 84 102.5 155t36.5 142v6h-123v355h383v-240q0 -59 -8 -112.5t-25.5 -103.5t-47 -99.5t-72.5 -102.5h-246z" />
<glyph unicode="&#x201e;" horiz-adv-x="1239" d="M143 -301q66 84 102 153.5t36 141.5v6h-121v356h383v-241q0 -59 -8.5 -112.5t-25.5 -103t-47 -98.5t-73 -102h-246zM672 -301q66 84 102.5 153.5t36.5 141.5v6h-123v356h383v-241q0 -59 -8 -112.5t-25.5 -103t-47 -98.5t-72.5 -102h-246z" />
<glyph unicode="&#x2022;" horiz-adv-x="1208" d="M307 762q0 61 23.5 114.5t63.5 93.5t94.5 63.5t115.5 23.5t114.5 -23.5t93.5 -63.5t63.5 -93.5t23.5 -114.5t-23.5 -114.5t-63.5 -94.5t-94 -64.5t-116 -23.5q-61 0 -115.5 23.5t-94.5 63.5t-62.5 94.5t-22.5 115.5z" />
<glyph unicode="&#x2026;" horiz-adv-x="2048" d="M147 0v356h385v-356h-385zM829 0v356h385v-356h-385zM1513 0v356h385v-356h-385z" />
<glyph unicode="&#x202f;" horiz-adv-x="392" />
<glyph unicode="&#x2039;" horiz-adv-x="720" d="M137 430v244l438 352v-326l-198 -147l198 -150v-325z" />
<glyph unicode="&#x203a;" horiz-adv-x="720" d="M141 78v325l197 150l-197 147v326l439 -352v-244z" />
<glyph unicode="&#x205f;" horiz-adv-x="490" />
<glyph unicode="&#x2122;" horiz-adv-x="1705" d="M207 1350v112h485v-112h-168v-435h-149v435h-168zM803 915v547h196l127 -332l123 332h197v-547h-135v410l-154 -410h-61l-158 410v-410h-135z" />
<glyph unicode="&#x25fc;" horiz-adv-x="1105" d="M0 0v1106h1106v-1106h-1106z" />
</font>
</defs>
</svg>
